<svg width="331" height="331" xmlns="http://www.w3.org/2000/svg" xmlns:xlink="http://www.w3.org/1999/xlink" overflow="hidden"><defs><filter id="fx0" x="-10%" y="-10%" width="120%" height="120%" filterUnits="userSpaceOnUse" primitiveUnits="userSpaceOnUse"><feComponentTransfer color-interpolation-filters="sRGB"><feFuncR type="discrete" tableValues="0 0"/><feFuncG type="discrete" tableValues="0 0"/><feFuncB type="discrete" tableValues="0 0"/><feFuncA type="linear" slope="0.4" intercept="0"/></feComponentTransfer><feGaussianBlur stdDeviation="4.44444 4.44444"/></filter><clipPath id="clip1"><rect x="49" y="199" width="331" height="331"/></clipPath><clipPath id="clip2"><rect x="-2" y="-2" width="338" height="338"/></clipPath><clipPath id="clip3"><rect x="0" y="0" width="333" height="333"/></clipPath><clipPath id="clip4"><rect x="15" y="15" width="303" height="303"/></clipPath><clipPath id="clip5"><rect x="15" y="15" width="303" height="303"/></clipPath><clipPath id="clip6"><rect x="15" y="15" width="303" height="303"/></clipPath><clipPath id="clip7"><rect x="66" y="216" width="297" height="297"/></clipPath><clipPath id="clip8"><rect x="66" y="216" width="297" height="297"/></clipPath><clipPath id="clip9"><rect x="66" y="216" width="297" height="297"/></clipPath></defs><g clip-path="url(#clip1)" transform="translate(-49 -199)"><g clip-path="url(#clip2)" filter="url(#fx0)" transform="translate(48 198)"><g clip-path="url(#clip3)"><g clip-path="url(#clip4)"><g clip-path="url(#clip5)"><g clip-path="url(#clip6)"><path d="M166.5 133.541C199.17 133.541 225.748 106.963 225.748 74.293 225.748 41.6234 199.17 15.0443 166.5 15.0443 133.83 15.0443 107.252 41.6234 107.252 74.293 107.252 106.963 133.83 133.541 166.5 133.541ZM137.84 67.9619C141.338 64.4663 147.005 64.4663 150.502 67.9619L159.057 76.5176 182.498 53.076C185.995 49.5805 191.662 49.5805 195.16 53.076 198.657 56.5726 198.657 62.2417 195.16 65.7383L165.388 95.51C163.64 97.2573 161.349 98.1325 159.057 98.1325 156.765 98.1325 154.474 97.2583 152.726 95.51L137.84 80.6242C134.343 77.1276 134.343 71.4574 137.84 67.9619Z" fill="#FFFFFF"/><path d="M49.8783 101.596C69.0941 101.596 84.7276 85.9628 84.7276 66.7471 84.7276 47.5313 69.0941 31.8977 49.8783 31.8977 30.6625 31.8977 15.03 47.5313 15.03 66.7471 15.03 85.9628 30.6625 101.596 49.8783 101.596Z" fill="#FFFFFF"/><path d="M18.4643 151.483 18.4643 223.857C18.4643 240.48 31.9396 253.955 48.5625 253.955L87.7886 253.955 87.7886 307.41C87.7886 311.482 91.0894 314.784 95.1622 314.784L129.921 314.784C133.993 314.784 137.294 311.483 137.294 307.41L137.294 230.303C137.294 216.271 125.919 204.897 111.888 204.897L81.2933 204.897 81.2933 151.483C81.2933 134.133 67.2285 120.069 49.8793 120.069 32.5291 120.068 18.4643 134.132 18.4643 151.483Z" fill="#FFFFFF"/><path d="M283.122 101.596C302.337 101.596 317.97 85.9628 317.97 66.7471 317.97 47.5313 302.337 31.8977 283.122 31.8977 263.906 31.8977 248.272 47.5313 248.272 66.7471 248.272 85.9628 263.906 101.596 283.122 101.596Z" fill="#FFFFFF"/><path d="M251.707 151.483 251.707 204.897 221.113 204.897C207.081 204.897 195.706 216.272 195.706 230.303L195.706 307.41C195.706 311.482 199.006 314.784 203.079 314.784L237.838 314.784C241.91 314.784 245.211 311.483 245.211 307.41L245.211 253.955 284.438 253.955C301.06 253.955 314.536 240.48 314.536 223.857L314.536 151.483C314.536 134.133 300.471 120.069 283.122 120.069 265.771 120.068 251.707 134.132 251.707 151.483Z" fill="#FFFFFF"/><path d="M218.638 169.879C223.583 169.879 227.591 165.871 227.591 160.927 227.591 155.982 223.582 151.974 218.638 151.974L114.362 151.974C109.417 151.974 105.409 155.983 105.409 160.927 105.409 165.872 109.418 169.879 114.362 169.879L157.546 169.879 157.546 309.002C157.546 313.947 161.555 317.955 166.499 317.955 171.443 317.955 175.452 313.946 175.452 309.002L175.452 169.879 218.638 169.879Z" fill="#FFFFFF"/></g></g></g></g></g><g clip-path="url(#clip7)"><g clip-path="url(#clip8)"><g clip-path="url(#clip9)"><path d="M214.5 332.187C246.529 332.187 272.586 306.13 272.586 274.101 272.586 242.072 246.529 216.014 214.5 216.014 182.471 216.014 156.414 242.072 156.414 274.101 156.414 306.13 182.471 332.187 214.5 332.187ZM186.402 267.894C189.831 264.467 195.387 264.467 198.816 267.894L207.203 276.282 230.184 253.3C233.613 249.873 239.169 249.873 242.598 253.3 246.026 256.728 246.026 262.286 242.598 265.714L213.41 294.902C211.696 296.615 209.45 297.473 207.203 297.473 204.956 297.473 202.71 296.616 200.996 294.902L186.402 280.308C182.974 276.88 182.974 271.321 186.402 267.894Z" fill="#FFFFFF"/><path d="M100.165 300.869C119.004 300.869 134.331 285.542 134.331 266.703 134.331 247.864 119.004 232.537 100.165 232.537 81.326 232.537 66 247.864 66 266.703 66 285.542 81.326 300.869 100.165 300.869Z" fill="#FFFFFF"/><path d="M69.367 349.777 69.367 420.732C69.367 437.029 82.578 450.24 98.875 450.24L137.332 450.24 137.332 502.647C137.332 506.639 140.568 509.876 144.561 509.876L178.638 509.876C182.63 509.876 185.867 506.64 185.867 502.647L185.867 427.052C185.867 413.295 174.715 402.144 160.959 402.144L130.964 402.144 130.964 349.777C130.964 332.768 117.175 318.979 100.166 318.979 83.156 318.978 69.367 332.767 69.367 349.777Z" fill="#FFFFFF"/><path d="M328.835 300.869C347.674 300.869 363 285.542 363 266.703 363 247.864 347.674 232.537 328.835 232.537 309.996 232.537 294.669 247.864 294.669 266.703 294.669 285.542 309.996 300.869 328.835 300.869Z" fill="#FFFFFF"/><path d="M298.036 349.777 298.036 402.144 268.042 402.144C254.285 402.144 243.133 413.296 243.133 427.052L243.133 502.647C243.133 506.639 246.369 509.876 250.362 509.876L284.439 509.876C288.431 509.876 291.668 506.64 291.668 502.647L291.668 450.24 330.125 450.24C346.422 450.24 359.633 437.029 359.633 420.732L359.633 349.777C359.633 332.768 345.844 318.979 328.835 318.979 311.825 318.978 298.036 332.767 298.036 349.777Z" fill="#FFFFFF"/><path d="M265.616 367.813C270.464 367.813 274.393 363.883 274.393 359.036 274.393 354.188 270.463 350.259 265.616 350.259L163.384 350.259C158.536 350.259 154.607 354.189 154.607 359.036 154.607 363.884 158.537 367.813 163.384 367.813L205.722 367.813 205.722 504.208C205.722 509.056 209.652 512.985 214.499 512.985 219.346 512.985 223.276 509.055 223.276 504.208L223.276 367.813 265.616 367.813Z" fill="#FFFFFF"/></g></g></g></g></svg>