<svg width="550" height="550" xmlns="http://www.w3.org/2000/svg" xmlns:xlink="http://www.w3.org/1999/xlink" overflow="hidden"><defs><filter id="fx0" x="-10%" y="-10%" width="120%" height="120%" filterUnits="userSpaceOnUse" primitiveUnits="userSpaceOnUse"><feComponentTransfer color-interpolation-filters="sRGB"><feFuncR type="discrete" tableValues="0 0"/><feFuncG type="discrete" tableValues="0 0"/><feFuncB type="discrete" tableValues="0 0"/><feFuncA type="linear" slope="0.4" intercept="0"/></feComponentTransfer><feGaussianBlur stdDeviation="4.44444 4.44444"/></filter><clipPath id="clip1"><rect x="621" y="55" width="550" height="550"/></clipPath><clipPath id="clip2"><rect x="47" y="30" width="457" height="492"/></clipPath><clipPath id="clip3"><rect x="0" y="0" width="552" height="552"/></clipPath><clipPath id="clip4"><rect x="14" y="14" width="524" height="524"/></clipPath><clipPath id="clip5"><rect x="14" y="14" width="524" height="524"/></clipPath><clipPath id="clip6"><rect x="14" y="14" width="524" height="524"/></clipPath><clipPath id="clip7"><rect x="640" y="74" width="512" height="512"/></clipPath><clipPath id="clip8"><rect x="640" y="74" width="512" height="512"/></clipPath><clipPath id="clip9"><rect x="640" y="74" width="512" height="512"/></clipPath></defs><g clip-path="url(#clip1)" transform="translate(-621 -55)"><g clip-path="url(#clip2)" filter="url(#fx0)" transform="translate(620 54)"><g clip-path="url(#clip3)"><g clip-path="url(#clip4)"><g clip-path="url(#clip5)"><g clip-path="url(#clip6)"><path d="M354.173 80.7516C334.324 59.3214 306.6 47.52 276 47.52 245.237 47.52 217.421 59.25 197.664 80.5476 177.692 102.08 167.962 131.344 170.246 162.943 174.775 225.286 222.215 276 276 276 329.785 276 377.143 225.296 381.743 162.964 384.059 131.65 374.267 102.447 354.173 80.7516Z" fill="#FFFFFF"/><path d="M455.52 504.48 96.48 504.48C86.9627 504.603 77.896 500.434 71.796 493.127 65.166 485.202 62.4936 474.38 64.4724 463.435 73.0812 415.679 99.948 375.562 142.176 347.4 179.692 322.4 227.213 308.64 276 308.64 324.787 308.64 372.308 322.41 409.824 347.4 452.052 375.552 478.919 415.669 487.528 463.425 489.506 474.37 486.834 485.192 480.204 493.117 474.106 500.428 465.039 504.601 455.52 504.48Z" fill="#FFFFFF"/></g></g></g></g></g><g clip-path="url(#clip7)"><g clip-path="url(#clip8)"><g clip-path="url(#clip9)"><path d="M972.64 138.58C953.18 117.57 926 106 896 106 865.84 106 838.57 117.5 819.2 138.38 799.62 159.49 790.08 188.18 792.32 219.16 796.76 280.28 843.27 330 896 330 948.73 330 995.16 280.29 999.67 219.18 1001.94 188.48 992.34 159.85 972.64 138.58Z" fill="#FFFFFF"/><path d="M1072 554 720 554C710.669 554.121 701.78 550.033 695.8 542.87 689.3 535.1 686.68 524.49 688.62 513.76 697.06 466.94 723.4 427.61 764.8 400 801.58 375.49 848.17 362 896 362 943.83 362 990.42 375.5 1027.2 400 1068.6 427.6 1094.94 466.93 1103.38 513.75 1105.32 524.48 1102.7 535.09 1096.2 542.86 1090.22 550.027 1081.33 554.119 1072 554Z" fill="#FFFFFF"/></g></g></g></g></svg>