<svg id="Layer_1" data-name="Layer 1" xmlns="http://www.w3.org/2000/svg" viewBox="0 0 1000 1000"><defs><style>.cls-1{fill:#dde6ea;opacity:0.6;}.cls-2{fill:#286754;}.cls-3{fill:#3c8f7c;}.cls-4{fill:#32806c;}.cls-5{fill:#56baa4;}.cls-6{fill:#9ad1c5;}.cls-7{fill:#f4a493;}.cls-8{fill:#35548a;}.cls-9{fill:#f18661;}.cls-10{fill:#133759;}.cls-11{fill:#3b6c63;}.cls-12{fill:#f18b7f;}.cls-13{fill:#98cbdc;}.cls-14{fill:#09457a;}.cls-15{fill:#008abf;}.cls-16{fill:#1c2443;}.cls-17{fill:#f4a392;}.cls-18{fill:#476eb4;}.cls-19{fill:#f4a492;}.cls-20{fill:#ee745a;}.cls-21{fill:#fff;}.cls-22{fill:#6ec1cf;}.cls-23{fill:#5593a7;}.cls-24{fill:#de513b;}.cls-25{fill:#b6cfda;}.cls-26{fill:#0f2e35;}.cls-27{fill:#ee755a;}.cls-28{fill:#f08560;}.cls-29{fill:#184655;}.cls-30{fill:#6a97ce;}.cls-31{fill:#09558a;}.cls-32{fill:#9ebee5;}.cls-33{fill:#f7cc7f;}</style></defs><path class="cls-1" d="M85.7,995.89H960.16c72.48-71.33,35.18-286-25.36-329.47C869.63,619.59,973.11,457.61,872.72,405c-65.54-34.33-169.79,3.09-155.77-88.76,19.45-127.35-207.82-160-375.26-125.65C160.67,227.74,326,410.22,126.91,447c-102.36,18.9-82.58,180.64-73,214.07,8.32,29.11,63.31,75.28-13.12,138.87C-71.33,893.17,83.05,994.17,85.7,995.89Z"/><path class="cls-2" d="M862.44,451.12s-14.31,36.77-24,52.3S819.69,533.8,812,576.9s-6.37,47.44-8.47,58.57-15.8,56.24-15.88,64.51-27.66,55.36-34.73,77.4S733.33,830.89,734,846.92l3.14-.94s2.56-37.37,24.37-75.14,18.69-44.9,43.46-64.3,40.77-73,40.77-73,25.19-58.21,24-88.47S875.31,487.51,862.44,451.12Z"/><path class="cls-2" d="M828.92,394.58s-.83,24.15-7.44,38.5S809.19,456.14,808,471.66s-5.34,55.54-23.76,75.07-20.76,78.08-34.78,95.79S733.6,673,736.19,703.32s11.38,72.46-9,127.4l-4.6-13.66s14.55-45.2,11-71.66-15.78-66.46-11.29-85.64-12.19-22.92-2.15-51.93,5.92-39.08,19.59-64.16c0,0,1.4-1.18,5-22.4s32.57-60.11,45.92-73.38S823.34,413.34,828.92,394.58Z"/><path class="cls-3" d="M774.53,514.15s-16,32.3-16.22,53.09,1.68,37.7-6.41,66.16,8,46.47,3.34,62.18-5,34.33-4.84,48.44-18.32,60.81-21.13,84.46.78,23.72.78,23.72,3.06-31.22,7.31-41.54,17.16-45.91,20.18-59.68,11.19-22.61,18.24-45.93,17.08-43,16.32-76S802.62,561,774.53,514.15Z"/><path class="cls-3" d="M740.67,830.53s7.46-41,38.91-45.08,49.91,3.24,72.13-26.7,35.11-77.47,42.21-85.65c0,0-11.16-6.78-29.72,13.69s-31.59,36-42.33,47.9-19.47,4.15-30.81,12c-9.5,6.58-21.79,25.61-27.21,35.57a44.06,44.06,0,0,1-6.24,8.82c-2.17,2.37-4.77,5.28-6.43,7.42-3.33,4.28-12.94,32.17-12.94,32.17Z"/><path class="cls-3" d="M729.59,823.3s11.08-50.13,3.66-74.66S702.59,706,703.52,690.55s15.86-57.06,3.69-88.06c0,0-4.62,27.65-9.18,33.81s-35.85,31-30.3,63.73,36,40.43,43.46,50.08,17.6,9.63,17.67,16,2,29.74-1.32,52.75Z"/><path class="cls-4" d="M741.71,789.76l15.57-52.91s9.14-42.55,14.44-78,2.81-144.66,2.81-144.66-16,32.3-16.22,53.09,1.68,37.7-6.41,66.16,8,46.47,3.34,62.18-5,34.33-4.84,48.44-18.32,60.81-21.13,84.46c-1.54,12.95-1.16,18.83-.5,21.5C726.28,829.29,741.71,789.76,741.71,789.76Z"/><path class="cls-4" d="M818.4,758.24c-13.89,3.27-26.31,2.16-42.8,16.63a153.33,153.33,0,0,0-26.18,29.94s-7.41,15.62-10.48,23.86l-.7,2,2.43-.15s7.46-41,38.91-45.08,49.91,3.24,72.13-26.7,35.11-77.47,42.21-85.65c0,0-23.63,21.68-38.23,40.87S832.28,755,818.4,758.24Z"/><path class="cls-4" d="M698,636.3c-4.56,6.15-35.85,31-30.3,63.73s36,40.43,43.46,50.08,17.6,9.63,17.67,16,2,29.74-1.32,52.75l.89,1.93c1.65-9,3.92-22.66,4.67-33.05,1.21-16.87-1.11-23.85-5.71-37.51s-33.15-41.5-40.3-56.13,13.8-39.09,18.45-50.9,1.67-40.75,1.67-40.75S702.59,630.14,698,636.3Z"/><path class="cls-5" d="M772.26,799.08l4.89-13.93c3.79-10.25,13.5-15.15,21.68-10.93h0c20.61,10.61,29.57,40.15,20,66l-7,18.89c-3.07,8.27-2,17.37,2.13,23.79,3.75,5.83,4.36,13.93,1.76,21l-3.68,9.95c-4,10.78-11.75,18.76-21,22.06-5.38,1.92-10.13,6.69-12.65,13.48l-5.21,14.1c-5.77,15.58-20.53,23-33,16.62l-7.1-3.65c-12.43-6.41-17.84-24.23-12.07-39.82h0c9.32-18.63,8.58-32.54,5.27-42a65.87,65.87,0,0,1,.46-44l.74-2c5.54-15,16.26-26.19,29-31C762.24,815.48,768.11,810.32,772.26,799.08Z"/><path class="cls-6" d="M684.25,995.89c10-15.3,64.85-97.26,100.62-110.92,39.47-15.07,2.27,44.81,2.27,44.81s70-90.34,95.73-82.2c23.55,7.47,0,63.46,0,63.46s26.53-31,58.71-31c31.31,0-21.88,110-24.75,115.85Z"/><path class="cls-3" d="M895.3,818.59c-28.61,52.71-49.49,111.28-61.43,173.49l-2-.62c11.89-60.91,32.64-119.37,61.2-172,6.64-12.24,13.81-26.76,26.24-31.53.24-.09.33.34.1.44C908.09,793.38,901.51,807.14,895.3,818.59Z"/><path class="cls-3" d="M840.76,994.26c32-51.29,70.85-98.7,117.07-139.93.46-.41,1.09.54.62,1C914.61,895,875.83,942,843.2,995Z"/><path class="cls-3" d="M897.92,785.89c.73,1.28,3.55,4.61,4.38,9a21.85,21.85,0,0,1,.14,9.17,20.71,20.71,0,0,0,4.35-8.87c1.4-5.29.42-12.62-1.33-15-3-5.5-8.29-6-9.32-3.39S896.44,783,897.92,785.89Z"/><path class="cls-3" d="M904.76,833c-1.07-.89-3.84-4.29-7.53-5.35a13.36,13.36,0,0,0-7.77-.34c-.09.24,2.91-3.79,7.61-5,4.51-1.55,10.7-.25,12.73,1.86,4.59,3.67,5,9.91,2.68,11.06S907.2,834.75,904.76,833Z"/><path class="cls-3" d="M894.43,853.57c-1.07-.89-3.84-4.28-7.53-5.34a13.31,13.31,0,0,0-7.77-.35c-.09.25,2.91-3.78,7.61-5,4.51-1.56,10.7-.25,12.73,1.86,4.59,3.67,5,9.9,2.68,11.05S896.87,855.38,894.43,853.57Z"/><path class="cls-3" d="M931.28,901.41c-1.07-.89-3.84-4.28-7.53-5.35a13.35,13.35,0,0,0-7.77-.34c-.1.24,2.91-3.79,7.6-5,4.51-1.55,10.71-.25,12.73,1.86,4.6,3.67,5,9.91,2.69,11.06S933.71,903.21,931.28,901.41Z"/><path class="cls-3" d="M950.1,881.85c-1.06-.9-3.83-4.29-7.53-5.35a13.4,13.4,0,0,0-7.77-.35c-.09.25,2.92-3.78,7.61-4.95,4.51-1.56,10.7-.25,12.73,1.86,4.6,3.67,5,9.9,2.69,11.06S952.54,883.65,950.1,881.85Z"/><path class="cls-3" d="M883.46,809.23c.9,1.12,4.13,3.89,5.53,8.06a21.46,21.46,0,0,1,1.37,9,22,22,0,0,0,3.1-9.57c.69-5.48-1.27-12.54-3.32-14.62-3.71-4.86-9-4.43-9.65-1.61S881.61,806.64,883.46,809.23Z"/><path class="cls-3" d="M868.27,832.62c1.28.8,5.75,2.25,8,6.19,2.55,3.51,2.87,9.51,2.7,9.39-.24.26,3.18-5.79,3-12.26.32-6.47-2.93-13.35-5.8-14.63-5.31-3.54-12.11-.38-12.67,3.1S865.61,830.66,868.27,832.62Z"/><path class="cls-3" d="M852.28,868c1.38.54,6,1.08,8.76,4.52,3,3,4.18,8.81,4,8.72-.2.3,2.31-6.34,1.25-12.69-.61-6.43-4.8-12.58-7.81-13.26-5.74-2.44-12,2-12.05,5.56S849.38,866.64,852.28,868Z"/><path class="cls-3" d="M899.59,892.72c1,.74,4.57,2.22,6.2,5.57a15,15,0,0,1,1.75,7.82c-.21.2,2.86-4.49,3.06-9.77.57-5.23-1.75-11.06-4-12.29-4.15-3.24-9.83-1.12-10.45,1.67S897.52,891,899.59,892.72Z"/><path class="cls-3" d="M924.22,794.19c-.59-.59-2.11-2.74-4.25-3.56a8,8,0,0,0-4.59-.6,9.6,9.6,0,0,1,4.69-2.54c2.72-.68,6.34.41,7.46,1.76,2.58,2.41,2.57,6.11,1.18,6.68S925.6,795.38,924.22,794.19Z"/><path class="cls-3" d="M918.49,779.13c0,.92.54,3.64-.22,6.15a11.19,11.19,0,0,1-2.39,4.65,9.49,9.49,0,0,0,4.57-2.82c2.12-2.13,3.59-6.18,3.37-8.05,0-3.88-2.54-6.13-3.76-5.18S918.52,777.12,918.49,779.13Z"/><path class="cls-3" d="M963.66,861.92c-.6-.59-2.11-2.74-4.26-3.56a8,8,0,0,0-4.58-.6,9.54,9.54,0,0,1,4.68-2.54c2.73-.69,6.35.41,7.47,1.76,2.58,2.41,2.56,6.11,1.17,6.68S965,863.11,963.66,861.92Z"/><path class="cls-3" d="M956.74,846.73c.09.91.8,3.58.21,6.15a11.68,11.68,0,0,1-2.06,4.87,9.84,9.84,0,0,0,4.35-3.26c2-2.33,3.16-6.5,2.81-8.34-.31-3.87-2.95-5.87-4.11-4.8S956.64,844.73,956.74,846.73Z"/><path class="cls-3" d="M951.92,944.85c-29.21,3.78-56.42,19-82.62,33.83-17.66,10-16.77,12.85-20.37,14.34-.58.24-1.17-.5-.88-1.17,1.38-3.23,5-5.42,7.54-7.28a94,94,0,0,1,9.12-5.86c6.67-3.82,13.51-7.26,20.31-10.74,13.82-7.09,27.87-13.75,42.48-18.27a129.55,129.55,0,0,1,24.4-5.13c.16,0,.18.26,0,.28Z"/><path class="cls-3" d="M925.59,934.16c.19,1.42,1.44,5.52.67,9.58a18.55,18.55,0,0,1-3,7.75,15.64,15.64,0,0,0,6.61-5.41c3-3.78,4.58-10.39,3.92-13.24-.69-6-4.92-8.93-6.67-7.17S925.32,931,925.59,934.16Z"/><path class="cls-3" d="M899.85,945c.19,1.41,1.44,5.52.67,9.57a18.55,18.55,0,0,1-2.95,7.75,15.64,15.64,0,0,0,6.61-5.41c3-3.78,4.58-10.38,3.93-13.23-.7-6-4.93-8.94-6.68-7.18S899.58,941.91,899.85,945Z"/><path class="cls-3" d="M873.7,958.79c.19,1.41,1.44,5.52.67,9.57a18.7,18.7,0,0,1-3,7.76A15.78,15.78,0,0,0,878,970.7c3-3.78,4.57-10.38,3.92-13.23-.69-6-4.93-8.93-6.68-7.18S873.43,955.66,873.7,958.79Z"/><path class="cls-3" d="M933.28,962.53c-.53-1.16-1.56-5-4-7.49a12.78,12.78,0,0,0-5.84-3.77,12.39,12.39,0,0,1,7.43-.37c4,.85,8.28,4.64,9.15,7.17,2.33,4.89.59,9.83-1.52,9.69S934.56,965,933.28,962.53Z"/><path class="cls-3" d="M906.5,973.71c-.53-1.16-1.55-5-4-7.49a12.73,12.73,0,0,0-5.84-3.77,12.41,12.41,0,0,1,7.44-.37c4,.85,8.28,4.64,9.15,7.17,2.33,4.89.59,9.83-1.53,9.69S907.78,976.19,906.5,973.71Z"/><path class="cls-3" d="M953.66,951c-.46-.65-1.53-2.91-3.37-4.08a7.59,7.59,0,0,0-4.09-1.46,8.35,8.35,0,0,1,4.63-1.39c2.58-.08,5.72,1.63,6.55,3.08,2,2.7,1.47,6.08.12,6.32S954.75,952.38,953.66,951Z"/><path class="cls-3" d="M950.58,936.18a15.33,15.33,0,0,1-1.07,5.56,9.64,9.64,0,0,1-2.84,3.76,8.22,8.22,0,0,0,4.56-1.67c2.23-1.52,4.15-4.92,4.21-6.67.52-3.54-1.44-6.09-2.69-5.46S950.89,934.35,950.58,936.18Z"/><path class="cls-3" d="M198.1,734.12c-34.34-36.12-52-88-60.75-125.13a430.21,430.21,0,0,1-10.91-72.83l-1.87-.14a433.48,433.48,0,0,0,11,73.35c8.84,37.51,26.68,89.91,61.44,126.47Z"/><path class="cls-3" d="M130.35,526.82c1.69,9.29.27,18.06-3.34,24.39-5.65-4.91-10.1-12.78-11.79-22.07s-.28-18.06,3.33-24.39C124.21,509.66,128.65,517.53,130.35,526.82Z"/><path class="cls-3" d="M119.82,553.26a39.89,39.89,0,0,1,10,23.23c-6.49.35-13.64-2.76-19.55-9.25a39.84,39.84,0,0,1-10-23.23C106.76,543.66,113.9,546.77,119.82,553.26Z"/><path class="cls-3" d="M117,581c7.35,2.72,13.38,8.76,17,16.1-5.34,4-12.48,5.2-19.83,2.48s-13.38-8.76-17-16.09C102.54,579.49,109.69,578.32,117,581Z"/><path class="cls-3" d="M128.36,614.46c5.82,2.17,10.48,7.71,13.12,14.71-4.42,4.38-10.2,6-16,3.87s-10.48-7.71-13.12-14.71C116.76,614,122.54,612.3,128.36,614.46Z"/><path class="cls-3" d="M138.3,566.77c4.59-5.45,10.66-7.77,16.53-7,.33,7.33-1.82,14.77-6.4,20.21s-10.65,7.76-16.53,7C131.58,579.64,133.72,572.21,138.3,566.77Z"/><path class="cls-3" d="M143.62,590.72c4.58-5.45,10.65-7.77,16.52-7,.33,7.33-1.82,14.77-6.4,20.21s-10.65,7.76-16.53,7C136.89,603.59,139,596.16,143.62,590.72Z"/><path class="cls-5" d="M177.41,783.09c-31.71-5.45-58.84-27.61-76-45.23a247.5,247.5,0,0,1-30-37.4l-1.13.76a248.86,248.86,0,0,0,30.24,37.67c17.34,17.8,44.75,40.19,76.85,45.7Z"/><path class="cls-5" d="M70.6,693.26a24.11,24.11,0,0,1,6,15.69,20.64,20.64,0,0,1-14-7.49,24.11,24.11,0,0,1-6-15.69C61.45,686.06,66.59,688.63,70.6,693.26Z"/><path class="cls-5" d="M73.08,713.4a21.4,21.4,0,0,1,13.39,9,16.81,16.81,0,0,1-14.38,3.48,21.46,21.46,0,0,1-13.39-9A16.81,16.81,0,0,1,73.08,713.4Z"/><path class="cls-5" d="M80.5,730.8a18.12,18.12,0,0,1,15.08,1.69,17.35,17.35,0,0,1-10.72,10.42,18.12,18.12,0,0,1-15.08-1.69A17.35,17.35,0,0,1,80.5,730.8Z"/><path class="cls-5" d="M98,745.11c4.09-1.38,8.6-.27,12.41,2.61-1.15,4.54-4,8.12-8.06,9.5s-8.59.26-12.4-2.62C91,750.06,93.86,746.48,98,745.11Z"/><path class="cls-5" d="M88.21,712.88a16.51,16.51,0,0,1,7.33-11.56A21.2,21.2,0,0,1,98.39,716a16.5,16.5,0,0,1-7.32,11.56A21.16,21.16,0,0,1,88.21,712.88Z"/><path class="cls-5" d="M99.09,724.39a16.55,16.55,0,0,1,7.33-11.56,21.23,21.23,0,0,1,2.85,14.65A16.52,16.52,0,0,1,102,739,21.18,21.18,0,0,1,99.09,724.39Z"/><path class="cls-6" d="M196.49,895c-36.57,16.38-76.82,7.73-104.15-2.41a243.7,243.7,0,0,1-51.16-26.26l-.81,1.83a245.46,245.46,0,0,0,51.51,26.45c27.6,10.25,68.27,19,105.29,2.4Z"/><path class="cls-6" d="M36.68,857.6A28.77,28.77,0,0,1,51.1,873.49c-5.35,3.23-12.15,3.72-18.79.68a28.76,28.76,0,0,1-14.42-15.9C23.25,855,30,854.56,36.68,857.6Z"/><path class="cls-6" d="M49.64,881.86a20.27,20.27,0,0,1,18.86,1.7A24.62,24.62,0,0,1,55,898.69,20.21,20.21,0,0,1,36.1,897,24.56,24.56,0,0,1,49.64,881.86Z"/><path class="cls-6" d="M66.46,898.93c4.6-6.08,10.83-9.11,16.94-9a32.06,32.06,0,0,1-6.09,21.43c-4.6,6.08-10.82,9.11-16.93,9A32,32,0,0,1,66.46,898.93Z"/><path class="cls-6" d="M90,907.74c4.6-6.08,10.83-9.11,16.94-9a32.1,32.1,0,0,1-6.09,21.43c-4.6,6.07-10.82,9.1-16.93,9A32,32,0,0,1,90,907.74Z"/><path class="cls-6" d="M67.85,879.27a34.34,34.34,0,0,1-5.42-20.52c5.33.74,10.78,4.39,14.83,10.61a34.35,34.35,0,0,1,5.43,20.52C77.35,889.14,71.9,885.49,67.85,879.27Z"/><path class="cls-6" d="M92.31,888.3a34.36,34.36,0,0,1-5.7-20.44c5.34.62,10.83,4.17,15,10.32a34.24,34.24,0,0,1,5.69,20.44C101.92,898,96.43,894.45,92.31,888.3Z"/><path class="cls-6" d="M120.94,910.15a9.93,9.93,0,0,1,5.75-6.42,14.41,14.41,0,0,1,.33,9.79,9.93,9.93,0,0,1-5.75,6.42A14.41,14.41,0,0,1,120.94,910.15Z"/><path class="cls-3" d="M275,992.73s46.6-217.39,31.15-239.24c-21.36-30.18-39,70-40.7,61.45-16.32-80.32-20.67-183.11-73.32-194-29.93-6.19,6.91,76.43,4.7,98.77s-56.16-51.84-88.94-90.7-49.7-14.26-29,34.61c20,47.26,84.81,98.9,71.45,105S55.91,713.76,46,739.85c-12.17,32,109.44,75.52,98,82.7s-69.58-16.48-68,8,79.72,23.55,78.39,34.3c-2.16,17.43-53.84-22-56.11,2.1-2.33,24.65,68,20.16,66.77,39.39-.7,11-15.79-5.62-18,9.69-5.07,34.9,87.62,77.42,87.62,77.42Z"/><path class="cls-5" d="M310.51,994.06s-44.34-80.21-65.68-95.35c-22.74-16.14-5.43,32.17-5.43,32.17s-46.46-65.22-59.37-52-1.2,28.6-1.2,28.6-41.71-14.58-49.21,3.48c-11.52,27.75,57.16,50.77,57.16,50.77s-29.48-.37-24.06,18.37C170.9,1008.39,310.51,994.06,310.51,994.06Z"/><path class="cls-6" d="M129.62,911c7.5-18.06,49.21-3.48,49.21-3.48s-11.72-15.35,1.2-28.6,50.08,26.42,50.08,26.42-3.9-32.72,24.09-3.9c20,20.58,56.31,92.63,56.31,92.63Z"/><path class="cls-6" d="M256.69,792.68l2-1.61c-36.11-64.5-47.13-141.08-50-194-3.13-57.39,2.37-100.05,2.43-100.47l-2.47-.85c-.06.43-5.6,43.37-2.45,101.11C209.07,650.22,220.2,727.48,256.69,792.68Z"/><path class="cls-6" d="M218.19,486.58c.08,13-3.73,23.67-9.81,30.1-6.18-9.27-10.13-21.78-10.21-34.74s3.73-23.67,9.82-30.09A64.54,64.54,0,0,1,218.19,486.58Z"/><path class="cls-6" d="M198.64,515.71c6.15,11.45,8.68,24.32,7.68,35.36-8.44-2.84-16.95-10.51-23.1-22s-8.68-24.32-7.69-35.36C184,496.58,192.49,504.25,198.64,515.71Z"/><path class="cls-6" d="M188.77,550.5c8.86,7.27,15.26,18.2,18.2,29.56-7.79,2.57-17.26.46-26.12-6.81s-15.26-18.19-18.2-29.55C170.44,541.13,179.92,543.24,188.77,550.5Z"/><path class="cls-6" d="M200.33,611.25a23.2,23.2,0,0,1,8.3,11.77c-3.17,1.39-7.16.88-11-1.84a23.17,23.17,0,0,1-8.31-11.76C192.47,608,196.46,608.54,200.33,611.25Z"/><path class="cls-6" d="M203.47,633.76a23.2,23.2,0,0,1,8.3,11.77c-3.17,1.39-7.16.88-11-1.84a23.15,23.15,0,0,1-8.31-11.77C195.61,630.53,199.6,631,203.47,633.76Z"/><path class="cls-6" d="M219.41,542.67c7.14-4.77,15.48-4.72,22.89-.78-1.24,9.72-5.69,18.33-12.83,23.1s-15.48,4.72-22.88.77C207.83,556,212.27,547.44,219.41,542.67Z"/><path class="cls-6" d="M220.83,576.57c7.14-4.77,15.49-4.72,22.89-.78-1.24,9.73-5.69,18.33-12.82,23.1s-15.49,4.72-22.89.78C209.25,589.94,213.7,581.34,220.83,576.57Z"/><path class="cls-6" d="M219.42,625.09a14.1,14.1,0,0,1,14.9-.5c-.81,6.32-3.71,11.92-8.35,15a14.12,14.12,0,0,1-14.9.5C211.88,633.79,214.77,628.2,219.42,625.09Z"/><path class="cls-7" d="M728.86,816.37c4.2.8,3.95,1.61,4.49,1.7s8.21-4.39,8.21-4.39,22.4-13,23.58-13.79l16.17-24,12.46,6.77s-18.18,25.51-19.33,26.63S741.17,823.71,738.38,825c0,0-2.81,3-4.63,4.87s-4.26,2.56-4.84,3a18.82,18.82,0,0,1-4.94,2c-2.45.63-.41-1.33-.41-1.33s4.33-2.16,4.12-2.55-2.47,1-5.17,1.78l-2,.53c-1.66.42-2.38-.7-.72-1.47a14,14,0,0,1,2.32-.89,12.71,12.71,0,0,0,2.13-1,15.87,15.87,0,0,0,2.18-1c-.06-.07.12-.41-.62-.23a38.88,38.88,0,0,1-4,1.33c-.76.1-2.33.43-2.33.43s-2.78.31-2.8-.15c0-1,1.67-1.56,2.72-1.54a9.34,9.34,0,0,1,2.32-.68s3.23-1.5,3-2.07c-.08-.22-2,.12-4.1.29s-3.77.18-3.89-.32c-.18-.8,1.56-1.1,1.56-1.1s1.53-.26,2-.4,2.32-.79,2.32-.79,5.92-2.57,5.71-3.09-1.19-1.59-1.61-1.59-1.17.49-1.58.5-1.32-.1-1.38-.72,2.25-1.9,2.25-1.9A5.71,5.71,0,0,1,728.86,816.37Z"/><path class="cls-8" d="M770.06,790.75s4,4.33,5.71,5.75c1.39,1.18,8.19,5,8.19,5s6.76-12.21,9.72-18.33c3.58-7.43,6.06-18.48,5.22-18.78a10.65,10.65,0,0,0-8.68.28C779.76,770.37,770.06,790.75,770.06,790.75Z"/><path class="cls-9" d="M732.78,822.75c-1.79.34-3.63-.06-4.42-2C728.18,823.05,731.13,824.19,732.78,822.75Z"/><path class="cls-10" d="M231.55,737.09a50.32,50.32,0,0,0-3.32-20.76A14.62,14.62,0,0,0,215,707.39c-16.55,0-18.66,25.9-29.2,35.89-3.22,3.06-6.82,5.55-9.87,8.84-11.25,12.16-6.18,34.68,4.15,45.35,7.17,7.4,18.44,11.6,27.28,5.82,4.61-3,8.11-8,10.61-13.54,3.54-7.81,5.82-16.82,8.34-25.13C229,755.76,231.21,746.54,231.55,737.09Z"/><path class="cls-11" d="M234.25,771.53c-5.17-18.51-12-18.22-12-18.22l5.52,39.41c3.19-1,7.35-3.33,10.54-4.39C237.25,782.48,235.52,776.09,234.25,771.53Z"/><path class="cls-12" d="M260.39,834.65l-18.91-17s-1.9-15.87-4.45-30c-3.19,1.07-6.07,4-9.26,5.05l4.81,31.54,24.78,15.08,7,10.61,1.6-10.89Z"/><path class="cls-13" d="M432.73,808.07a28.84,28.84,0,0,1,16.14,5,16.53,16.53,0,0,0,1.95,1.11c14.53,7,30.43-6,30.43-24.53V698.55H404c-15.7,0-26.75-18.76-20.79-35.89a22.65,22.65,0,0,1,.94-2.31,43.79,43.79,0,0,0,4.26-19c0-21.95-15.52-39.62-34.31-38.59-17,.93-30.71,17.41-31.18,37.49a44.12,44.12,0,0,0,4,19.66,22.12,22.12,0,0,1,.93,2.35c5.92,17.42-5.31,36.33-21.22,36.33H230.07V906.18c0,49,33.65,88.68,75.17,88.68h176V904c0-18.62-15.95-31.73-30.57-24.72a16.64,16.64,0,0,0-2,1.1A28.73,28.73,0,0,1,431,885.29c-16.68-1-30.15-17-30.94-36.71C399.13,826.39,414.11,808.07,432.73,808.07Z"/><path class="cls-14" d="M600.14,757.53a43.3,43.3,0,0,1,5-18.79,22.37,22.37,0,0,0,1-2.25c6.64-16.79-3.66-36.13-19.34-37l-77.16-4.25-3.61,91c-.73,18.51-17.13,30.65-31.36,22.82a16.37,16.37,0,0,1-1.91-1.21,29.13,29.13,0,0,0-15.93-5.9c-18.58-1-34.27,16.42-34.28,38.62,0,20.09,13.31,37,30.29,38.5a28.39,28.39,0,0,0,16.84-3.82,16.59,16.59,0,0,1,2-1c15-6.16,30.52,8,29.77,26.7l-3.57,90.24,175.81,9.69c41.47,2.29,76.66-35.52,78.6-84.44l8.22-207.41-76.9-4.24c-15.77-.87-27.62,17.31-22.36,34.87a22.4,22.4,0,0,0,.84,2.36,44.56,44.56,0,0,1,3.29,21.17c-1.66,19.6-15.83,34.73-32.53,34.74C614.08,798,599.27,779.46,600.14,757.53Z"/><path class="cls-15" d="M385.14,614.2a44.35,44.35,0,0,1-3.44,19.28,21.43,21.43,0,0,0-.84,2.35c-5.23,17.47,6.61,35.55,22.29,34.62l77.15-4.58-3.88-91c-.79-18.5,14.53-32.47,29.34-26.3a16.22,16.22,0,0,1,2,1,28.48,28.48,0,0,0,16.33,4.05c18.58-1.1,32.77-20.27,30.95-42.36-1.64-20-16.28-35.3-33.3-34.85a29.09,29.09,0,0,0-16.45,5.71,16.84,16.84,0,0,1-1.94,1.22c-14.45,7.84-31-4.43-31.82-23.18l-3.85-90.22L291.9,380.35c-41.46,2.46-73.39,44.11-71.3,93l8.84,207.37,76.89-4.56c15.76-.94,26.06-20.38,19.39-37.26a22.37,22.37,0,0,0-1-2.25,43.71,43.71,0,0,1-5-20.69c0-19.7,12.9-36.38,29.52-38.29C367.94,575.54,384.2,592.27,385.14,614.2Z"/><path class="cls-16" d="M543,564a28.84,28.84,0,0,1-16.14-5,16.73,16.73,0,0,0-1.95-1.11c-14.53-7-30.43,6-30.43,24.52V673.5h77.24c15.71,0,26.76,18.75,20.79,35.89a21.19,21.19,0,0,1-.94,2.3,43.86,43.86,0,0,0-4.25,19c0,21.94,15.51,39.62,34.31,38.59,17-.93,30.7-17.41,31.18-37.49a44.19,44.19,0,0,0-4-19.67q-.5-1.08-.93-2.34c-5.92-17.42,5.31-36.33,21.22-36.33H745.7V465.87c0-49-33.66-88.69-75.18-88.69h-176V468c0,18.62,16,31.74,30.57,24.72a16,16,0,0,0,2-1.1,28.68,28.68,0,0,1,17.77-4.86c16.67,1,30.14,17,30.93,36.71C576.64,545.66,561.65,564,543,564Z"/><path class="cls-17" d="M179.79,966.05s-1.17,9.57-3.17,12.66a23.15,23.15,0,0,0-2.71,4.22c-1.26,2.91-.57,7.25.36,9.64.48,1.23,0,1.22,1,1.62,3.21,1.17,6.63-.8,8-4.44a25.61,25.61,0,0,0,1.57-8.15c.34-8.68,2.63-13.1,2.63-13.1Z"/><path class="cls-17" d="M214.9,970.43s.72,10.79.13,14.29c-.31,1.88-2.05,5.74-1.25,7.51a4.43,4.43,0,0,0,1.71,2.21l20.73.39c1.12,0,.38-.83-.53-1.63-1.49-1.29-2.69-2.15-7.45-4.87-.31-.18-1.44-1-1.85-1.32a15.75,15.75,0,0,1-3-3.1c-1.48-2-1.61-11.45-1.61-11.45Z"/><path class="cls-8" d="M231.1,827s2.61,17.51.89,29S222.05,974,222.05,974l-9.13.61s-1.92-44.46-1.58-50.64,3.06-16.53,3.06-16.53l-.91-35.9L225,824.34Z"/><path class="cls-18" d="M204.24,823.36s-7.2,12.8-8.91,23.4,1.25,43.18-2,57.06c-1.79,7.52-8.55,19.13-9.58,28.85s-5.06,35.17-5.06,35.17l9.14,2.14L209,906.42,225.67,849l4.27-29.59Z"/><path class="cls-11" d="M210.06,750.49s-9.53-.72-13.3,4.14,8.37,43.28,9.05,49.47-3.49,22.62-3.49,22.62S224.7,832,231.1,827c0,0,.68-44.46,0-48.88s-6.4-22.37-7.77-24.14S210.06,750.49,210.06,750.49Z"/><path class="cls-19" d="M213.23,735.43s0,.33-.13.9c-.43,2.71-2.07,11.69-3.17,14.16-1.34,3,4.57,12.51,10.26,11.35,1.69-.35-1.43-8.75-1.28-9.64.28-1.7.67-4,1.07-6.41.23-1.35.46-2.71.67-4,.61-3.64,1.1-6.62,1.1-6.62Z"/><path class="cls-20" d="M213.1,736.33c.08-.57.13-.9.13-.9l8.52-.25s-.49,3-1.1,6.62c-.21,1.27-.44,2.63-.66,4a7.58,7.58,0,0,1-4.07-2.42,13,13,0,0,1-3.08-5.41C212.94,737.3,213,736.75,213.1,736.33Z"/><path class="cls-19" d="M219,712.53a7.07,7.07,0,0,0-6.54,3.3c-2.51,3.85-5.23,15.76,1,22.23s12.43-.85,13.35-8.62S228.08,712.25,219,712.53Z"/><path class="cls-19" d="M228.66,729.32c-.75,1.72-2,2.67-2.8,2.13s-.84-2.38-.1-4.09,2-2.67,2.8-2.13S229.4,727.61,228.66,729.32Z"/><path class="cls-10" d="M219.42,711.26s-5.37,11.32-9.21,11.84-4.34,6.54-4.34,6.54,1.37-13.86,5.17-16.53A12.24,12.24,0,0,1,219.42,711.26Z"/><path class="cls-20" d="M183.94,987.84c-5,1.08-8.3-2.37-10-5-1.27,2.93-1.88,7.28-.95,9.68.82,2.11,3.21,2,5.1,2.14s3.54-1.23,4.53-3.28A21.73,21.73,0,0,0,183.94,987.84Z"/><path class="cls-20" d="M226.39,987a16.08,16.08,0,0,1-11.8-.55c-.59,2-1.36,4.42-1,5.83.5,1.74,1.22,2.13,1.85,2.15,5,.15,18.34.37,22.16.42.53,0,.82-.72.48-1.21C237.18,992.32,226.79,987.3,226.39,987Z"/><path class="cls-19" d="M211.22,726c.31,2-.32,3.85-1.4,4.12s-2.22-1.15-2.54-3.17.32-3.85,1.41-4.11S210.91,723.94,211.22,726Z"/><path class="cls-21" d="M217.49,732.91l4.84.26a2.29,2.29,0,0,1-2.33,2.12A2.32,2.32,0,0,1,217.49,732.91Z"/><path class="cls-22" d="M630.62,277.18c.6,0,2.25.68,4.67,6.07,3.09,6.88,7.6,27.67,7.6,27.67l-13.47,5.92-1.73-4.34-2.85-33.41S630.45,277.17,630.62,277.18Z"/><path class="cls-13" d="M612.81,274.18c3.85,0,13.38,1.33,17.81,3,0,0,3.24,32.94-2.93,58-1.38,5.6,1.14,23.23,1.14,23.23l-39.91-.62s4.73-42.61,3-49.5-1.82-30.87-1.82-30.87l9-1.82A76.44,76.44,0,0,1,612.81,274.18Z"/><path class="cls-17" d="M608.16,419.54s.88,12,2.51,15.35-.09,9-.17,9.76-3.42,1.89-8.72,1.22-5.21-2.11-4.78-4.44,3.24-5.32,3.41-7.54-1.62-10.21-1.62-10.21Z"/><path class="cls-23" d="M624.33,348.47s27.55-1.81,33.7,2.59-4.37,26-4.37,26-19.17-1-56.72,1.52c-8.89.6-9.66-27.35-8-29.67S624.33,348.47,624.33,348.47Z"/><path class="cls-24" d="M601.12,446.81c-5.45-.69-4.78-3.85-4.34-6.25.28-1.5,1.84-3.27,2.77-4.95a8.64,8.64,0,0,0,3.65,2.09c2.46.86,5.83-.84,8-1.9a36.33,36.33,0,0,1,.73,8.3C611.83,444.9,606.58,447.49,601.12,446.81Z"/><path class="cls-25" d="M604.13,371.72c1.1,9.82,6.55,58.74,6.55,58.74L598,432.3s-15.55-63.84-14.76-73.6,6.62-10.59,6.62-10.59S601.22,345.71,604.13,371.72Z"/><path class="cls-17" d="M589.61,281.06c3.73-1.65,5.56,38,6.06,54.34,6.61.75,18.13,0,21-.25,1.34-.12,4.45-1.46,5.8-1.67a11.38,11.38,0,0,1,3.29-.18c.25.05,7.14,3.37,7.73,4.1.73.9,2.7,3.18,2.37,4.17s-3.8-2.75-3.8-2.75l-1.69-1.12c2.11,2.43,6.13,5.63,5.55,6.8s-4.19-2.12-6.78-4.33c2.22,2.36,5,6.59,4.34,7.25s-3.71-4.3-7.06-5.71c-1.24-.52-2.47.92-3.45,1.1a5.89,5.89,0,0,1-2.53.16l-3.63-1.21c-1.23.13-1.26,1-2.51,1.31-1.45.36-3.83.74-5.67,1.28-10.62,3.06-14.16,4.48-17.41,4.48C581.37,348.82,580.79,285,589.61,281.06Z"/><path class="cls-22" d="M582.53,317.58c-.7-16.43-.6-36.68,7.35-40.13,3.14-1.37,8.66,6.83,7.67,40.46C593.31,318.32,587.08,318.65,582.53,317.58Z"/><path class="cls-17" d="M645.14,429.82S644,434,646,436.75s10.18,5.47,11.26,7a4.68,4.68,0,0,1,1,2.77l-23-.75.25-8.21,1.06-5.89Z"/><path class="cls-24" d="M647.44,438.13s-5.92,2.82-8.78,1.15-2.77-2.14-3.6-1.51-1.12,8.32-1.12,8.32l25.91.9c1.8-.05,2.71-1.62,1.25-3a20.37,20.37,0,0,0-2.83-2C656.24,440.68,647.44,438.13,647.44,438.13Z"/><path class="cls-25" d="M644.26,356.17c1.78-4.42,5.83-10.18,13-6.71,6.8,3.31,8.62,11.43,6.48,19.75s-16.26,57.24-16.76,64l-11.27.09s2.05-38.74,2.55-48.1C638.71,376.16,641.18,363.82,644.26,356.17Z"/><path class="cls-16" d="M662.56,311.11H624.88a2.51,2.51,0,0,0-2.27,1.81L611,346.41H590.23a1.16,1.16,0,0,0-1.05,1.25h0a1.15,1.15,0,0,0,1.05,1.24h59.13a4.15,4.15,0,0,0,3.76-2.88l11.68-30.81C665.53,313.29,664.34,311.11,662.56,311.11Z"/><path class="cls-21" d="M642.28,330.62c-.26,1.5-1.37,2.51-2.48,2.25s-1.81-1.7-1.56-3.21,1.37-2.51,2.48-2.24S642.53,329.11,642.28,330.62Z"/><path class="cls-26" d="M621.77,233.94a26.69,26.69,0,0,1-3.34-1.57,14.94,14.94,0,0,0-3.8-1.69c-2.1-.38-5.71-.13-7.71,2.42-2.48,3.18-6.9.58-6,17.24,1,18.85,9.89,16.78,10.11,16.46L619,254.74s2.69,7,2.69,6.7S635.41,239.36,621.77,233.94Z"/><path class="cls-17" d="M615,268.2l.77,6.73s1.71,9.71-.5,11.58-9.4-11.85-9.4-11.85l.76-17.07Z"/><path class="cls-20" d="M606.41,263.12a17.94,17.94,0,0,0,9.26,10.79L615,268.2l-8.37-10.61Z"/><path class="cls-17" d="M614.56,239c4.69-.9,8.89,3.55,8.78,9.08a81,81,0,0,1-.65,8.64c-1,7.78-5.51,14.63-8.49,14s-10.46-7.32-9.14-18.39C605.88,245.53,609.65,239.94,614.56,239Z"/><path class="cls-17" d="M607.13,253.68c-.25,1.71-1.42,2.9-2.6,2.66s-1.93-1.83-1.68-3.54,1.41-2.9,2.59-2.66S607.38,252,607.13,253.68Z"/><path class="cls-26" d="M605.44,250.14s3.6,1.06,4.93-1.67,6.11-8.62,12.17-6.17-5.33-5.94-5.82-5.94l-6.31-.05s-4.49,4.36-4.65,4.84-1.45,5.69-1.45,5.69Z"/><path class="cls-21" d="M612,261.53l6.54,1.47a3,3,0,0,1-3.51,2.36A3.39,3.39,0,0,1,612,261.53Z"/><path class="cls-17" d="M501.34,799a8.75,8.75,0,0,0,.71,2,77.31,77.31,0,0,0,6.81,10.7l3.68-9.79s-.6-3.08-1.64-7.47C507.35,795.53,504,796.16,501.34,799Z"/><path class="cls-10" d="M522.45,790.46s-20.54,10.44-21.2,10.24c-.43-.13-8.43-15.92-8.52-30.77,0-6.86,6-15.11,12.74-13.48,3.39.82,3.34,1.94,8.36,10.54S522.45,790.46,522.45,790.46Z"/><path class="cls-17" d="M540,977.55s-.48,9.52-.49,9.54c-.18,1.2-.88,4.19-.88,5.29,0,4.13,16.61-3.5,12.89-5.33-.34-.17-2.11-1.42-2.22-2.82-.17-2.17-.6-6.55-.6-6.55Z"/><path class="cls-24" d="M551.46,987a56.1,56.1,0,0,1-5.9,1.58c-2,.31-4.63-2.35-6-1.63s-1.5,7.9-1.5,7.9,20.91,2,26.79-.07C567.14,994,559.43,990,551.46,987Z"/><path class="cls-17" d="M506,977.55s-.49,9.52-.49,9.54c-.18,1.2-.89,4.19-.89,5.29,0,4.13,16.61-3.5,12.89-5.33-.34-.17-2.63-2.35-2.74-3.76-.17-2.16-.08-5.61-.08-5.61Z"/><path class="cls-24" d="M517.48,987a56.1,56.1,0,0,1-5.9,1.58c-2,.31-4.63-2.35-6-1.63-1.56.79-1.62,7.9-1.62,7.9s21,2.36,26.92-.07C533.13,993.85,525.45,990,517.48,987Z"/><path class="cls-19" d="M511.08,804.23l14.63-24.18c.06-.21.2-.64.4-1.3.74-2.4,2.27-7.39,3.6-12.36l0,0c.42-1.74,1.31-4.77,2.17-7.7,1-3.25,2.14-7.29,2.18-8,0-.12-.1-.33-.2-.61a63.61,63.61,0,0,1-1.51-7.26c-.17-1.08-.33-3.71.76-3.71,1.72,0,.9,2.63,1.69,4.27a47.54,47.54,0,0,0,1.19-5.48l.29-5.14c.05-.39-.3-3.22.91-3.22h0c1.09.09,1.06,3.11,1.51,8.21.14-.59.28-1.3.39-2a22.86,22.86,0,0,1,.37-2.69c-.22-1.42-.09-3.66,1.19-3.45.64.11.59,3.24.59,3.24,0,.42,0,3.73,0,4.38.14-1.11.65-5.84,1.66-5.84.83,0,.9,1.28.88,2.28,0,.6-.53,5.73-.56,6.32.39-.77.86-5.29,1.24-5.29,1.63,0,1,6.42.45,8.09a8.16,8.16,0,0,0-.19.9,17.64,17.64,0,0,1-1.39,4.78c-1,2.06-2.43,5.34-2.65,5.84-.16,1-.65,4.71-1.26,9.34-.27,2-.56,4.16-.86,6.41h0c-.06.49-.36,2-1.52,7.85-1.58,8-1.75,8.3-1.82,8.45-.68,1.43-16.46,26.7-17.13,27.77l-.39.64Z"/><path class="cls-27" d="M538.29,747.84s-1.19-3.58-3.3-3.58a2.1,2.1,0,0,1,2.19.44C538.2,745.64,538.29,747.84,538.29,747.84Z"/><path class="cls-17" d="M507.55,740.92,505.67,755s7.17,6.8,11.35,5.37c3.51-1.21,1.11-6.62,1.11-6.62s-1.87-7.5-1.3-11.43S507.55,740.92,507.55,740.92Z"/><path class="cls-28" d="M508.9,745.17a26,26,0,0,0,8.12,2.7,22.35,22.35,0,0,1-.19-5.58c.27-1.82-1.69-2.24-3.88-2.18-2.85.29-5.4.81-5.4.81l-.36,2.7A6,6,0,0,0,508.9,745.17Z"/><path class="cls-17" d="M498.49,724.72c-.29,0,2.84,15.69,7.69,18.39s12.08,1.3,13.43-2.93c1.5-4.68-4-20.69-10.79-22.72S498.49,724.72,498.49,724.72Z"/><path class="cls-10" d="M504.1,710.3a17.39,17.39,0,0,0-6.24,8.14c-1.82,1-4,3.22-5.08,9.15a13,13,0,0,0,8.21,14.6c4.9,1.69,5.65,5.51,5.65,5.51l.56-4.11a17.16,17.16,0,0,0-2.73-5.37c-1.64-1.79.78-4.4,1-6.53.16-1.64-.86-4.82-.64-7.51,0,0,2.72-4.86,5.4-6.07C514.79,716.07,509.07,706.92,504.1,710.3Z"/><path class="cls-17" d="M506.16,734.42c.64,1.81.38,3.61-.57,4s-2.24-.73-2.88-2.54-.37-3.62.58-4S505.53,732.61,506.16,734.42Z"/><path class="cls-17" d="M524.22,804.62l28.22-5.43s-3.21-9.54-4.36-9.54-21.34,10.4-21.34,10.4l-1.6,3.81Z"/><path class="cls-29" d="M509.77,827.44s-2.82,16-1.67,28.23,1.24,55.41,1.24,55.41L505,980.27l10.39.26s12.31-69.15,12.08-67.37,4.13-48.69,4.13-48.69l-14.68-38.55Z"/><path class="cls-10" d="M512.52,826.68s-1.83,14.45.46,20.79,19.68,68.55,19.91,73.62,6,61.13,6,61.13l12.07-.4,2.62-62.33-5.47-78.33-5.32-19.81Z"/><path class="cls-17" d="M505.67,755s3,2.31,5.75,2,6.71-3.29,6.71-3.29l-.55-2.18s-7.18-1.24-7.37-1.1S505.67,755,505.67,755Z"/><path class="cls-17" d="M537.41,789.18s10.67,11.89,15.49,9.86,6.81-9-4.94-19.11C537.43,770.85,537.41,789.18,537.41,789.18Z"/><path class="cls-8" d="M544.64,803.86c-1.59-10.18-13.08-41.85-14-47.68-.45-2.84-6.65-2.9-12.55-2.53-6.24.39-12.43,1.32-12.43,1.32s-5.52,1.07-7.95,3.76-3.08,10.11.41,24.2c2.76,11.13,6.18,17.24,7.87,25.35.34,2.71.63,5.4,1,8.53.62,12.12,0,28.13,0,28.13s30.06,7.35,41.3-3.81C548.31,841.13,546.26,814.28,544.64,803.86Z"/><path class="cls-18" d="M552.3,782s-11.79,11.48-12.48,11.48c-.44,0-16.83-14.22-20.61-25.9-2.09-6.46,2.3-13.69,7.31-13.66,3.47,0,5,1.07,11.89,7.92S552.3,782,552.3,782Z"/><path class="cls-10" d="M344.85,269.38c1.94-5.49,3.9-11,8.92-13.77,4.05-2.24,8.29-1.4,11.9,1.8,10.21,9.06,1.31,19,12.94,36.23,3.62,5.34,8,9.66,10.15,15.91,3,8.76-.58,13-6.36,17.16-27.68,20.08-42.19-21.14-41.67-30.56C341.12,289.13,343.61,272.91,344.85,269.38Z"/><path class="cls-17" d="M316.13,376.19c1.16-.22,4-2.61,5-2.83.77-.17,2.45-.47,3.17-.59.87-3.86,5.32-24.88,5.82-31,.53-6.67,4.54-35.56,4.54-35.56L345,308.38s-4.3,22.22-5.49,33c-1,9.25-9.63,30.06-10.73,32.26v.16c-.17,3.26-1.5,2.17-1.5,2.17l-2.17.66s-7.67.87-8.17,1.09S315,376.41,316.13,376.19Z"/><path class="cls-30" d="M343.69,289.28c-7.32,2.93-11.49,26.42-11.49,26.42s11.5,3.79,14.44,1.8c0,0,3.34-17.48,4.54-16.87Z"/><path class="cls-17" d="M287,416.79a106.92,106.92,0,0,0-3.51,14.5c-.05.39.42,2.29.38,2.69-4.5,7.25-11,8.83-16.51,9.29,2.82-3.25,7-6.34,7.17-7.37a148.53,148.53,0,0,0,2.86-19.06C280.86,418.72,283.2,417.23,287,416.79Z"/><path class="cls-14" d="M350.78,338.76l9.9,32.9s-15.91,3.53-21.86,4.82-39.18,3-40,3.69c-.62.52-7.49,26.71-10.56,41.16-3.48.9-9.43-.18-12.6-1.47,1.71-20.67,7.9-53.41,9.88-57C288.74,357.08,350.78,338.76,350.78,338.76Z"/><path class="cls-17" d="M312.1,431.21a110.19,110.19,0,0,0-1.14,15c0,.4.77,2.15.8,2.56-3.27,8.11-9.37,11.1-14.75,12.78,2.26-3.83,5.85-7.77,5.88-8.83a150.1,150.1,0,0,0-.22-19.36C306.36,434.47,308.42,432.49,312.1,431.21Z"/><path class="cls-31" d="M362.34,340.47l3.84,7.74c5.85,11.78,1.37,26.93-9.42,31.87l-.17.08c-5.64,2.58-38,11.61-38.73,12.48-.53.64-3.12,27.89-3.83,42.76-3.28,1.65-9.3,1.9-12.62,1.34-1.6-20.68-.73-54.21.65-58.15C304.31,372.18,362.34,340.47,362.34,340.47Z"/><path class="cls-10" d="M310.47,446.46c.86-1.12,4,5.06,4.81,6.38a3.36,3.36,0,0,1,.53,2.83c-.28.61-17,12.19-21,13a1.76,1.76,0,0,1-1.21-.39c-1.59-1.66,5.73-13.92,9-15.53C304.7,451.73,306.59,451.51,310.47,446.46Z"/><path class="cls-10" d="M283,431.51c1-.91,3.15,5.86,3.72,7.33a3.4,3.4,0,0,1,.07,2.9c-.37.54-18.6,8.23-22.73,8.14a2,2,0,0,1-1.14-.65c-1.3-2,7.84-12.41,11.33-13.26C276.48,435.41,278.37,435.62,283,431.51Z"/><path class="cls-32" d="M350.64,289.21h0a2.53,2.53,0,0,1-.74-.18c-1.36-.29-4.33-.71-6.65.44-2.81,1.41-7.18,14.5-6.92,27.94.11,2,.21,3.89.3,5.17.71,10.15,3.18,29.2,3.32,29.3,3.35,2.55,23.62-7.34,25-9.51s2.21-28.55,2.89-29.87l1.33-22.94C366.83,288.73,354.24,289.18,350.64,289.21Z"/><path class="cls-17" d="M358.85,280.76s-1.3,8-1,11.1-1,13.26-6.63,13.29-1.07-12.86-.54-15.94.66-12.6.66-12.6Z"/><path class="cls-20" d="M351.18,281.39c.09-2.61.12-4.78.12-4.78l7.55,4.15s-.26,1.63-.53,3.7A6.16,6.16,0,0,1,351.18,281.39Z"/><path class="cls-17" d="M361.61,258.79a10.74,10.74,0,0,1,4,6c1.06,4.13-.15,14.79-7.67,17.36s-10.78-5.87-9.23-12.46S353.61,254.77,361.61,258.79Z"/><path class="cls-17" d="M347.75,267.16c.15,1.77,1,3.13,1.85,3s1.47-1.62,1.32-3.4-1-3.12-1.85-3S347.61,265.39,347.75,267.16Z"/><path class="cls-10" d="M360.73,258.25s1.37,11.89,4.62,14,1.9,7.42,1.9,7.42,2.95-12.24.38-16.18A14.16,14.16,0,0,0,360.73,258.25Z"/><path class="cls-17" d="M363.42,274c-.88,1.55-.88,3.38,0,4.08s2.32,0,3.21-1.53.88-3.37,0-4.08S364.31,272.44,363.42,274Z"/><path class="cls-21" d="M352.47,274.65l5.3,1.57a2.43,2.43,0,0,1-3,1.77A2.85,2.85,0,0,1,352.47,274.65Z"/><path class="cls-5" d="M378.78,375.2l22.85-1.35s-9.38,7.94-9.57,7.94-7.46-3.38-7.78-3.38S378.78,375.2,378.78,375.2Z"/><path class="cls-17" d="M836.25,977.94s.45,9.35.45,9.37c.17,1.19.81,4.12.81,5.2,0,4-15.24-3.44-11.83-5.24.31-.16,1.93-1.39,2-2.77.15-2.13.55-6.43.55-6.43Z"/><path class="cls-33" d="M825.54,987.31a48.19,48.19,0,0,0,5.41,1.55c1.83.31,4.25-2.3,5.55-1.59s1.37,7.76,1.37,7.76-19.2,2-24.59-.07C811.14,994.14,818.22,990.2,825.54,987.31Z"/><path class="cls-17" d="M861.64,977.46s.45,9.35.45,9.36c.17,1.19.81,4.12.81,5.2,0,4.06-15.24-3.44-11.83-5.23.31-.17,2.41-2.32,2.52-3.7.15-2.12.07-5.5.07-5.5Z"/><path class="cls-33" d="M851.11,986.75a48.19,48.19,0,0,0,5.41,1.55c1.84.31,4.25-2.3,5.55-1.6s1.49,7.76,1.49,7.76-19.06.93-24.71-.06C836.63,994,843.79,989.64,851.11,986.75Z"/><path class="cls-8" d="M857.12,829s2.58,15.77,1.53,27.73-1.14,54.44-1.14,54.44l4.86,68-10.37.29s-11.31-67.94-11.1-66.2-3.79-47.83-3.79-47.83l13.48-37.88Z"/><path class="cls-18" d="M853.5,818.76s11.71,14.55,7.36,30.44c-1.75,6.38-18.07,67.34-18.28,72.32s-5.51,60.06-5.51,60.06L826,981.19,823.58,920l3.17-82.5,6.73-13.92Z"/><path class="cls-25" d="M782.44,771.42c3.83-5,12.17-12.22,12.17-12.22s5-5,7-5.83c3-1.22,8.09-4.45,15.48,8.76,5.28,9.45,38.64,58.39,44.12,60l-35.76,20.18c-1-9.64-18.66-27.85-21.2-31.25C798.57,803.51,778.81,776.2,782.44,771.42Z"/><path class="cls-17" d="M784.1,750.92l11.14,7.69s.32,11.22-3.32,14.13c-3.06,2.45-5.38-3.42-5.38-3.42s-4.15-6.77-7.29-8.88S784.1,750.92,784.1,750.92Z"/><path class="cls-20" d="M786,755.85a30.6,30.6,0,0,1-2.89,8.51,19.1,19.1,0,0,0-3.83-3.92c-1.46-1-.53-3.08.88-5.06,2-2.46,4-4.46,4-4.46l2.15,1.47A14.2,14.2,0,0,1,786,755.85Z"/><path class="cls-17" d="M778.3,731.63c.19-.27,9.35,13.18,8.22,19.49S779.85,763.18,776,761.6c-4.26-1.75-12.17-17.58-9.34-25.27S778.3,731.63,778.3,731.63Z"/><path class="cls-10" d="M768.28,727.39c4-2.62,10.5-3.37,15.36-.36,6,3.69,7.35,13,5.48,18.66s.27,8.88.27,8.88l-3.18-2.19a19.61,19.61,0,0,1-2.09-6.13c-.24-2.72-3.61-2.24-5.25-3.48-1.26-.95-2.88-4-4.92-5.64,0,0-5.15-.74-7.69.94C761.94,740.93,762.56,731.15,768.28,727.39Z"/><path class="cls-19" d="M781.44,745c0,2,.78,3.67,1.81,3.69s1.88-1.6,1.91-3.62-.78-3.67-1.8-3.69S781.47,743,781.44,745Z"/><path class="cls-21" d="M772.07,755.75l4.84-4.28a3.55,3.55,0,0,1-.8,4.27C773.57,758.12,772.07,755.75,772.07,755.75Z"/><path class="cls-7" d="M759.89,840.82c1.21-2.09,1.74-5.11,3.42-7.42a16.2,16.2,0,0,1,2.49-2.51c8.07-5.58,29.11-19.95,29.93-21.06,1-1.33,15.34-29.47,15.34-29.47l-12.9-3.45-12.61,26.26c-1,1-21.06,18.43-21.06,18.43s-4,3.66-6.15,5.38a15.87,15.87,0,0,1-3.1,1.63,18.64,18.64,0,0,0-3.86,2.26c-.53.55-1.58,1.72-2.2,2.43s-1.39,1.51-1.68,1.94a4.38,4.38,0,0,1-1.14.85.94.94,0,0,0,.13,1.63,2.87,2.87,0,0,0,2-.53c1.45-.81,3.22-3,3.31-2.71s-1.7,4.91-1.88,5.46-2.24,6-2.34,7.16.51,1.49,1,1,3.72-7.61,3.72-7.61.42-.92.59-.39-2.84,7.09-3.13,8.17-.06,2,.78,1.59c1-.46,3.87-7.71,3.87-7.71s.37-.9.62-.59-2.38,5.86-2.41,6.49.46,1.27,1.17.74,3.32-7.12,3.32-7.12.31-.43.41-.13-1.87,5.21-1.72,5.93.58.48.58.48C757.33,848,758.67,842.91,759.89,840.82Z"/><path class="cls-8" d="M807.53,795.22a67.65,67.65,0,0,1-6.89-3c-1.81-1-9.68-5.59-9.68-5.59s3.4-16.89,5.69-23c8.42-22.29,18-6.92,19.28-3.34C818.84,768.32,807.53,795.22,807.53,795.22Z"/><path class="cls-21" d="M514.14,736.87l4-3.52a2.94,2.94,0,0,1-.67,3.52C515.38,738.83,514.14,736.87,514.14,736.87Z"/><path class="cls-29" d="M983.4,994.53H54.71c-1.16,0-2.1,1.41-2.1,3.16h0c0,1.75.94,3.17,2.1,3.17H983.4c1.16,0,2.1-1.42,2.1-3.17h0C985.5,995.94,984.56,994.53,983.4,994.53Z"/><path class="cls-17" d="M402.15,373.82c-.1-.28-.31-.29-.52-.3a44.12,44.12,0,0,1-6.28-.55,3.62,3.62,0,0,1-1-.31,2.28,2.28,0,0,0-1.74-.07,3.09,3.09,0,0,1-1,.12c-1.06,0-4.06-1.21-5.61-1.53a1,1,0,0,1-.72-.8c-1.52-7.09-4.78-23-5.2-28.24-.54-6.69-4.46-36.87-4.46-36.87l-10.48,3.45s4.31,22.27,5.5,33.07c.92,8.34,8,26,10.2,31.13,1.09,3.79,3.51,3.89,4.08,4a1.28,1.28,0,0,1,.83.53,6.27,6.27,0,0,0,1.32,1.35,3.43,3.43,0,0,1,.9,1.06c.45.77.85,1.57,1.24,2.38.26.53.53.7.92.57s.62-.49.61-1.09a5.49,5.49,0,0,0-.63-2.44,1.5,1.5,0,0,1,.09-1.76,5.05,5.05,0,0,1,.78-1,1.27,1.27,0,0,1,1.08-.46,13.89,13.89,0,0,0,2.28.51l.64.15.34.09c.05,0,1.17.16,1.55.16s.81,0,1.23.05a6,6,0,0,0,1.22-.22,1.39,1.39,0,0,0,1-.46.46.46,0,0,0,.16-.46.42.42,0,0,0-.34-.31,13.59,13.59,0,0,1-1.54-.3c.39,0,1.6,0,2-.05a1.67,1.67,0,0,0,1.33-.69C402.08,374.28,402.24,374.11,402.15,373.82Z"/><path class="cls-32" d="M369.31,289.51c5.17-1.11,9.44,26.19,9.44,26.19s-11.5,3.79-14.44,1.8c0,0-3.34-17.48-4.54-16.87Z"/><path class="cls-19" d="M244.22,780.31c.34-1.15-4.43-2.09-4.68-3.26s6-1.26,6.25-2.29c.41-1.89-6.89-.4-6.74-1.28s7.6-2.87,6.79-4.39-7.55,3-7.75,2,6.59-3.54,6.47-5.8c-.06-1.21-11.16,6-12.44,5.37s1.38-6.34.36-7.18-4,11.55-4.68,12-15.69,10.5-21,12.11c-.65-2.11-2.05-4.95-2.62-6.94-3,2.51-5.21,3.77-8.3,6.06,2.23,6.61,5.42,13.85,7,14.69,4.74,2.53,23.1-15.43,26.76-18.51s5.77-2.08,8.25-3.05S243.88,781.47,244.22,780.31Z"/><path class="cls-11" d="M195.22,789.81s-4.11-21.4-3.4-27.61,7-12,11.3-9.85,6.3,32,6.3,32Z"/></svg>