<svg id="Layer_1" data-name="Layer 1" xmlns="http://www.w3.org/2000/svg" viewBox="0 0 1000 1000"><defs><style>.cls-1{fill:#d8ebef;opacity:0.6;}.cls-2{fill:#98cbdc;}.cls-3{fill:#d7ecef;}.cls-4{fill:#75bfd4;}.cls-5{fill:#95cdde;}.cls-6{fill:#243862;}.cls-7{fill:#f7b17f;}.cls-8{fill:#1b2847;}.cls-9{fill:#09457a;}.cls-10{fill:#09558a;}.cls-11{fill:#ee985e;}.cls-12{fill:#fff;}.cls-13{fill:#ebf3fc;}.cls-14{fill:#0d84ab;}.cls-15{fill:#008abf;}.cls-16{fill:#1c2443;}.cls-17{fill:#2e3552;}.cls-18{fill:#1d3152;}.cls-19{fill:#2c488c;}.cls-20{fill:#84c4d7;}</style></defs><path class="cls-1" d="M76.49,996.57s-118.68-192.65-60.68-391c37.8-129.28,179.62-200.11,259.65-129.28,34.09,30.17,143.45,1,201.84-123.89C590.77,109.7,986.78,257.11,914.68,629.78,879.79,810.12,1020.86,816.68,949,997Z"/><path class="cls-2" d="M164.33,679.51s-12-18.82-.74-30.77c0,0,8.21-6.69,14.9-6.15,0,0-9.48,21.42-6.42,23.55s9.29-24.9,9.29-24.9S200,638.81,206,642.7c0,0-16,17.6-12.6,18.64S214,645.12,214,645.12s17.38,4,16.45,18.26-6.91,18.7-9.54,18.32-18-8.3-18.36-5.39,8.93,12.4,15.42,12.84c0,0-12.25,18.21-20.39,13s-8.84-13.58-13.92-16.7-9.4-3.12-7.31.07,11.28,6.28,14.18,13.2,5.51,11.58-2.91,9.87-22.12-10-22.72-19.52Z"/><path class="cls-2" d="M221.94,663.77s-47.19-2.45-57.61,15.74a49.32,49.32,0,0,1-9.4,17.77l-1.1,4.06S162,689.72,164.93,689C164.93,689,160.36,666.49,221.94,663.77Z"/><path class="cls-2" d="M154.93,697.28s-10.12,10.1-10.83,28.13l1.84.22S149.17,707,155,699.69,154.93,697.28,154.93,697.28Z"/><path class="cls-2" d="M122.48,655.84s19-14.37,10.16-33.87c0,0-7.11-12-14.73-15.05,0,0,4.07,29.08,0,29.77s-2.79-32.85-2.79-32.85-20.05-13-27.92-12c0,0,12.44,28.39,8.38,27.71s-18-29.42-18-29.42S57,585,53.69,601.45s2,24.63,5.08,25.66,22.59.68,22.08,4.1-13.71,8.9-21.07,5.82c0,0,8.12,27,18.79,25.65s14-10.26,20.56-10.94,11.42,1.71,8.12,4.1-14.47.79-19.8,6.9-9.64,9.87.26,12.6,27.67,1,31.22-9.23Z"/><path class="cls-2" d="M63.08,606.58s53.31,23.26,59.4,49.26a70.56,70.56,0,0,0,5.08,25V686s-5.58-17.45-8.63-19.84C118.93,666.11,130.86,643.53,63.08,606.58Z"/><path class="cls-2" d="M127.56,680.82a61.35,61.35,0,0,1,3.54,37.3l-2.12-.77s2.05-22.55-2.25-33.9S127.56,680.82,127.56,680.82Z"/><path class="cls-3" d="M152.77,636s-25.09-18.94-13.38-44.65c0,0,9.37-15.78,19.41-19.84,0,0-5.36,38.33,0,39.23s3.68-43.29,3.68-43.29,26.43-17.13,36.81-15.78c0,0-16.4,37.43-11,36.53S212,549.44,212,549.44s27.11-6.76,31.46,14.89-2.68,32.46-6.69,33.82-29.79.9-29.12,5.41,18.07,11.72,27.78,7.66c0,0-10.71,35.63-24.76,33.83s-18.41-13.53-27.11-14.43-15.06,2.25-10.71,5.41,19.08,1,26.1,9.08,12.72,13-.33,16.62-36.48,1.35-41.16-12.17Z"/><path class="cls-3" d="M231.08,571.09S160.81,601.75,152.77,636A92.75,92.75,0,0,1,146.08,669v6.76s7.36-23,11.38-26.15C157.46,649.56,141.73,619.79,231.08,571.09Z"/><path class="cls-3" d="M146.08,669a80.8,80.8,0,0,0-4.66,49.17l2.79-1s-2.71-29.73,3-44.69S146.08,669,146.08,669Z"/><path class="cls-3" d="M151.93,776.66c27.15,0,49.16-29.66,49.16-66.25H102.77C102.77,747,124.78,776.66,151.93,776.66Z"/><path class="cls-3" d="M103.16,771.86H200.7a1.07,1.07,0,0,1,1.07,1.07V780a0,0,0,0,1,0,0H102.09a0,0,0,0,1,0,0v-7.1A1.07,1.07,0,0,1,103.16,771.86Z"/><rect class="cls-2" x="101.15" y="710.41" width="101.06" height="2.03"/><path class="cls-2" d="M405.61,995.19h.24c2-.05,3.52-2.24,3.33-4.76L395.93,812.08l-11.56,1.39,19,179.31A2.43,2.43,0,0,0,405.61,995.19Z"/><path class="cls-2" d="M278,995.19h-.24c-2-.05-3.52-2.24-3.33-4.76l13.25-178.35,11.56,1.39-19,179.31A2.43,2.43,0,0,1,278,995.19Z"/><path class="cls-2" d="M499.1,995.19h.24c2-.05,3.52-2.24,3.33-4.76L489.42,812.08l-11.56,1.39,19,179.31A2.43,2.43,0,0,0,499.1,995.19Z"/><path class="cls-2" d="M282,786.14,258.43,629.6c-3-21.2,10-40.58,26.93-40.06l45.37,1.4c15.65.48,29.25,14.6,33.6,34.86l34.42,160.34Z"/><path class="cls-2" d="M296.18,786.14,272.66,629.6c-3-21.2,10-40.58,26.93-40.06l45.37,1.4c15.65.48,29.25,14.6,33.6,34.86L413,786.14Z"/><path class="cls-2" d="M283.82,786.14H472.68a1.87,1.87,0,0,1,1.87,1.87v26.68a0,0,0,0,1,0,0H283.82a1.87,1.87,0,0,1-1.87-1.87V788A1.87,1.87,0,0,1,283.82,786.14Z" transform="translate(756.5 1600.83) rotate(-180)"/><rect class="cls-2" x="367.45" y="786.14" width="124.98" height="28.55" rx="1.87" transform="translate(859.88 1600.83) rotate(-180)"/><path class="cls-4" d="M228.4,784.1v5.34c0,1.87-.45,3.4-1,3.4H82.78c-.55,0-1-1.53-1-3.4V784.1c0-1.87.45-3.4,1-3.4H227.4C228,780.7,228.4,782.23,228.4,784.1Z"/><path class="cls-2" d="M228.4,784.1v5.34c0,1.87-.42,3.4-.92,3.4H112.67c-.51,0-.92-1.53-.92-3.4V784.1c0-1.87.41-3.4.92-3.4H227.48C228,780.7,228.4,782.23,228.4,784.1Z"/><rect class="cls-2" x="89.12" y="792.84" width="102.67" height="201.67"/><rect class="cls-3" x="117.89" y="792.84" width="102.67" height="201.67"/><path class="cls-2" d="M215.05,983.37H123.41V798.54h91.64ZM124.4,982h89.66V799.87H124.4Z"/><rect class="cls-2" x="123.91" y="859.68" width="90.65" height="1.33"/><rect class="cls-2" x="123.91" y="922.02" width="90.65" height="1.33"/><path class="cls-2" d="M178.52,810.46H161.7c-.82,0-1.49-.9-1.49-2h0c0-1.1.67-2,1.49-2h16.82c.81,0,1.48.9,1.48,2h0C180,809.56,179.33,810.46,178.52,810.46Z"/><path class="cls-2" d="M178.52,871.42H161.7c-.82,0-1.49-.9-1.49-2h0c0-1.1.67-2,1.49-2h16.82c.81,0,1.48.9,1.48,2h0C180,870.52,179.33,871.42,178.52,871.42Z"/><path class="cls-2" d="M178.52,935H161.7c-.82,0-1.49-.9-1.49-2h0c0-1.1.67-2,1.49-2h16.82c.81,0,1.48.9,1.48,2h0C180,934.06,179.33,935,178.52,935Z"/><rect class="cls-2" x="560.94" y="330.95" width="75.94" height="99.29" rx="4.59"/><rect class="cls-3" x="564.23" y="335.25" width="69.36" height="90.68" rx="4.19"/><ellipse class="cls-2" cx="598.92" cy="344.31" rx="1.57" ry="2.12"/><path class="cls-2" d="M610,347.31c.42-1,1.38-1.39,2.14-.82a2.54,2.54,0,0,1,.61,2.88c-.43,1-1.38,1.39-2.14.82A2.53,2.53,0,0,1,610,347.31Z"/><path class="cls-2" d="M620.91,359a1.36,1.36,0,0,1,2.18.63,2.61,2.61,0,0,1-.47,2.94,1.36,1.36,0,0,1-2.18-.64A2.6,2.6,0,0,1,620.91,359Z"/><path class="cls-2" d="M626.3,377c.87,0,1.57.95,1.57,2.12s-.7,2.12-1.57,2.12-1.57-.95-1.57-2.12S625.43,377,626.3,377Z"/><path class="cls-2" d="M623.55,397.89a2.67,2.67,0,0,1,0,3,1.31,1.31,0,0,1-2.23,0,2.67,2.67,0,0,1,0-3A1.31,1.31,0,0,1,623.55,397.89Z"/><path class="cls-2" d="M613.67,411.23a2.69,2.69,0,0,1,0,3,1.31,1.31,0,0,1-2.23,0,2.69,2.69,0,0,1,0-3A1.32,1.32,0,0,1,613.67,411.23Z"/><path class="cls-2" d="M597.34,418.11c0-1.17.71-2.12,1.58-2.12s1.57.95,1.57,2.12-.7,2.12-1.57,2.12S597.34,419.28,597.34,418.11Z"/><path class="cls-2" d="M587.75,347.31c-.43-1-1.38-1.39-2.14-.82a2.52,2.52,0,0,0-.61,2.88c.42,1,1.38,1.39,2.13.82A2.55,2.55,0,0,0,587.75,347.31Z"/><path class="cls-2" d="M576.87,359a1.35,1.35,0,0,0-2.17.63,2.59,2.59,0,0,0,.46,2.94,1.36,1.36,0,0,0,2.18-.64A2.6,2.6,0,0,0,576.87,359Z"/><path class="cls-2" d="M571.48,377c-.86,0-1.57.95-1.57,2.12s.71,2.12,1.57,2.12,1.58-.95,1.58-2.12S572.35,377,571.48,377Z"/><path class="cls-2" d="M574.23,397.89a2.67,2.67,0,0,0,0,3,1.31,1.31,0,0,0,2.23,0,2.67,2.67,0,0,0,0-3A1.31,1.31,0,0,0,574.23,397.89Z"/><ellipse class="cls-2" cx="585.23" cy="412.73" rx="1.57" ry="2.12"/><path class="cls-5" d="M598.49,379.09c0-1.17.71-2.12,1.58-2.12s1.57.95,1.57,2.12-.71,2.12-1.57,2.12S598.49,380.26,598.49,379.09Z"/><rect class="cls-5" x="599.85" y="352.61" width="0.43" height="26.48"/><polygon class="cls-5" points="600.26 379.74 599.47 378.37 609.89 367.35 610.68 368.72 600.26 379.74"/><path class="cls-6" d="M438.31,753.38c-9.71,22.77-21.92,31.56-21.92,31.56H365.58S445.72,736,438.31,753.38Z"/><path class="cls-7" d="M501,979.64c-.55,7.18,6.87,9,15.47,9.74s6,3,17.75,6.09,16.52-1.23,17.39-3.37c.78-1.89-4.68-5-10.49-8.4-.74-.43-1.47-.88-2.2-1.32-6.55-4-10.17-12-15.24-19.43-4.8-7.05-9.23-29.46-9.23-29.46l-16-4.85s4.34,20.18,5.83,28.79c.88,5.06-.52,10.69-1.75,15A35.68,35.68,0,0,0,501,979.64Z"/><path class="cls-8" d="M516.44,989.38c8.6.7,6,3,17.75,6.09s16.52-1.23,17.39-3.37c.78-1.89-4.68-5-10.49-8.4l-.1.13a25.36,25.36,0,0,1-17.86,0c-7.78-3-15.27-9.36-20.62-11.46a35.68,35.68,0,0,0-1.54,7.24C500.42,986.82,507.84,988.68,516.44,989.38Z"/><path class="cls-9" d="M476.75,730.05c-8.6-8.14-65.5-22.65-94.54-26.85l-32.09-37.54s-27.32,54.53-27.54,96.24c-.1,19.45,6.55,21.38,6.55,21.39s102.89,1,107.4,1.65c7.38,1,17.12,25.81,19.55,48.39s45.34,114.38,45.34,114.38,8.95,3.86,13.08,3.53c4.45-.35,6.51-2.36,6.51-2.36S496.15,748.41,476.75,730.05Z"/><path class="cls-7" d="M474.36,979.64c-.55,7.18,6.87,9,15.47,9.74s6,3,17.74,6.09,16.53-1.23,17.4-3.37c.78-1.89-4.68-5-10.5-8.4l-2.19-1.32c-6.55-4-10.17-12-15.24-19.43-4.8-7.05-9.23-29.46-9.23-29.46l-16-4.85s4.34,20.18,5.83,28.79c.88,5.06-.52,10.69-1.76,15A36.36,36.36,0,0,0,474.36,979.64Z"/><path class="cls-6" d="M489.83,989.38c8.59.7,6,3,17.74,6.09s16.53-1.23,17.4-3.37c.78-1.89-4.68-5-10.5-8.4l-.09.13a25.36,25.36,0,0,1-17.86,0c-7.78-3-15.27-9.36-20.63-11.46a36.36,36.36,0,0,0-1.53,7.24C473.81,986.82,481.23,988.68,489.83,989.38Z"/><path class="cls-10" d="M449.91,730.05c-7.48-7.07-30-12.55-54.76-16.62-6.86-1.13-12.5-7.85-14.17-16.88h0l-57.71-30.89S296,720.19,295.73,761.9c-.1,19.45,6.55,21.38,6.55,21.39s102.89,1,107.4,1.65c7.38,1,17.12,25.81,19.55,48.39s45.34,114.38,45.34,114.38,8.95,3.86,13.09,3.53c4.45-.35,6.51-2.36,6.51-2.36S469.3,748.41,449.91,730.05Z"/><path class="cls-6" d="M372.68,439.1c-7.93-5.61-20-6.37-21.95-6.73-23.46-4.25-37.58,41.69-38.41,55.61-1.53,25.66-11.6,29.57-25.78,45.63-28.42,32.22-20.09,69.66-4.55,83.57,9.33,8.34,25.77,0,25.77,0,.23.22,44.95-33.69,67-50C407.8,560.8,392.89,453.4,372.68,439.1Z"/><path class="cls-7" d="M367.79,551.33c.1.07-10.42,6.52-18,3.14-7.15-3.18-13.45-17.68-13.35-17.7,3.11-.61,6.26-4.73,7.14-29.17l1.38.46,23.1,7.87s-.92,9.86-1.29,19.19C366.43,543,366.49,550.4,367.79,551.33Z"/><path class="cls-11" d="M368,515.93s0,2-.87,11.2c-13.06-4.44-18.82-10.27-22.89-17Z"/><path class="cls-7" d="M373,517.17s-30.54,6.7-33.35-19S331,456,350.36,450.66s24.26,3.69,26.74,12S380.84,514.77,373,517.17Z"/><path class="cls-6" d="M373,449.59s-13.87,29.51-26.25,36.5-18.47,3.44-18.47,3.44a86.37,86.37,0,0,0,7.1-27c.43-4.56,2.64-8.47,5.8-10.17C350.06,447.59,367.25,440,373,449.59Z"/><path class="cls-6" d="M360.81,452.44s8.13,5.62,11.48,10.88c3.23,5.08,7,18.87,6.7,25.06,0,0,4-29.67-4.35-39.87C365.78,437.69,360.81,452.44,360.81,452.44Z"/><path class="cls-12" d="M392.23,614.11c-.93,83.68-.26,66.2-7.05,74.14-1.63,1.91-6.24,3-12.29,3.59-19,1.7-52.51-2.53-53.78-7.27-4.4-16.41-1.3-21.5-5-46.62q-.57-4-1.41-8.71c-3.05-17.26-6-23.13,4.81-50.84,9.83-25.11,21.39-45.51,22.31-44.77,25.93,20.74,26.82,3.35,26.82,3.35S392.68,573.3,392.23,614.11Z"/><path class="cls-12" d="M366.68,537s26.54,6.07,29.67,21.55S417.92,665,417.92,665s-13.56,3.28-19.83-5.16-21.8-78.35-21.8-78.35Z"/><path class="cls-13" d="M372.89,691.84c-19,1.7-52.51-2.53-53.78-7.27-4.4-16.41-1.3-21.5-5-46.62l9.18-34.85s-1.51,38.81,7,49,34.77,19.71,38.9,28.23A37.7,37.7,0,0,1,372.89,691.84Z"/><path class="cls-7" d="M351.07,675.52s18.79-5.64,21.82-3.39,10.44,10.42,11.36,13.27-6.74-2.16-9.24-3.06c-1.62-.59-5.87,1.41-8,2.35-8.86,4-14.3,1.94-14.3,1.94Z"/><path class="cls-12" d="M339.86,533.63s-26.59,2.09-35.32,18.5c-12.29,23.1-36.67,121.56-22.7,134.69,15.74,14.79,71.62,3.87,71.62,3.87s1.86-11.72-.73-17.38-44.63-14.82-46.57-17.44,24.26-51,24.26-58.84S339.86,533.63,339.86,533.63Z"/><path class="cls-7" d="M373.8,679.17s3.93,6.84,5.22,7.66a3,3,0,0,0,2.13.61L378.5,681Z"/><path class="cls-7" d="M372.89,672.13l11.44,7.49a1.89,1.89,0,0,1-1.89,1c-1.41-.08-5-1.84-5-1.84Z"/><path class="cls-14" d="M415,689.88H361.9c0-3.15,1.89-5.71,4.23-5.71H415Z"/><polygon class="cls-14" points="414.89 611.88 497.06 611.88 477.35 689.88 394.65 689.88 414.89 611.88"/><polygon class="cls-15" points="498.27 611.88 478.56 689.88 395.86 689.88 416.1 611.88 498.27 611.88"/><path class="cls-12" d="M454,650.16c-.51,3-2.72,5.39-4.93,5.39s-3.59-2.41-3.08-5.39,2.72-5.4,4.93-5.4S454.48,647.18,454,650.16Z"/><rect class="cls-16" x="340.78" y="689.88" width="365.57" height="17.55" rx="1.15"/><path class="cls-16" d="M712.43,996.5l.15,0c1.85-.3,3.16-2.52,2.92-5L683.41,698.81l-11.74.45,37.75,294.29C709.66,995.44,711,996.74,712.43,996.5Z"/><path class="cls-16" d="M331.47,996.5l-.16,0c-1.84-.3-3.15-2.52-2.91-5l32.08-292.71,11.75.45L334.48,993.55C334.24,995.44,332.91,996.74,331.47,996.5Z"/><path class="cls-16" d="M405.75,996.5l-.15,0c-1.85-.3-3.15-2.52-2.92-5l32.09-292.71,11.75.45L408.76,993.55C408.52,995.44,407.19,996.74,405.75,996.5Z"/><rect class="cls-17" x="-0.16" y="993.73" width="1000" height="5.18" rx="0.34"/><path class="cls-6" d="M595.06,996.26h63.68c3.06-5,1.93-23.62,1.47-29.69-.1-1.22-.16-1.93-.16-1.93s-21.75-23.44-24.73-5.49c-.09.56-.21,1.11-.33,1.65-3.76,16.79-20.64,24.42-30.38,26.54A12.12,12.12,0,0,0,595.06,996.26Z"/><path class="cls-9" d="M768.81,717.44c-2.3,0-109.07,27-126.74,56.48-8.82,14.71-10.13,184.69-10.13,184.69s10.92,18.24,34.49,7.65c0,0,17.28-116.3,16-151.57-.36-9.75,72.95-1.41,86.37-6.09s46.2-44,39-63.17S768.81,717.44,768.81,717.44Z"/><path class="cls-7" d="M642.53,675.82s-21.53.39-26.63,3.33-15.42,9.69-12.66,10.73,16-.43,18.81.16,6.37-.16,8.11-.16h9.9Z"/><path class="cls-7" d="M617.35,606.16s-7.34-7.07-14.47-8.44a48.41,48.41,0,0,1-10.41-2.9c-6.58-3.12-19.75-19.07-18.75-20.94,3.19-6,18.56,6.69,21.24,5.33s-5.15-8.88-2.43-11.52c1.43-1.38,4.76,5.54,7.48,6.23,3.69.94,6.57,8,7.68,8.32,2.15.71,11.61,10.19,11.61,10.19Z"/><path class="cls-14" d="M758.17,523.58s-16.39,6.85-32.55,66.8-22.28,63.18-28.15,65.53-57.41,16.18-57.41,16.18v17.79h79.41s29.78-38.17,38.7-63.87S758.17,523.58,758.17,523.58Z"/><path class="cls-18" d="M566.92,996.26H630.6c3.06-5,1.93-23.62,1.47-29.69-.1-1.22-.16-1.93-.16-1.93s-21.75-23.44-24.74-5.49c-.09.56-.2,1.11-.32,1.65-3.76,16.79-20.64,24.42-30.38,26.54A12.12,12.12,0,0,0,566.92,996.26Z"/><path class="cls-10" d="M737.34,717.44c-2.3,0-109.07,27-126.73,56.48-8.82,14.71-10.13,184.69-10.13,184.69s10.91,18.24,34.49,7.65c0,0,17.28-116.3,16-151.57-.35-9.75,73-1.41,86.37-6.09s46.2-44,39-63.17S737.34,717.44,737.34,717.44Z"/><path class="cls-7" d="M744,542.58c7.68-.85,15.73-3.61,22.69-6.65,8.7-3.81,15.71-9.37,11.2-20.09C773.75,506,767,483.9,767.46,465.62l-16.19,17.59-11,11.94s0,7,1.24,19.38q.33,3.38.78,7.27a6.11,6.11,0,0,1-1.8,5.31l-.25.21C734.78,531.94,737.59,543.3,744,542.58Z"/><path class="cls-11" d="M740.28,492.24s-.57,2.56.4,12c9.8-2.16,19-12.7,19-12.7-5-1.84-6.81-9.11-10.53-8.43Z"/><path class="cls-7" d="M731.21,494.39s37.71,8.45,41.25-23.28,10.8-52-13.14-58.75-30,4.43-33.06,14.63S721.49,491.38,731.21,494.39Z"/><path class="cls-19" d="M720.71,413c-1.62,7.64,2.72,16.95,10,20,10.8,4.55,8.42,22.4,13.28,22.16s6.82-10.26,11.16-2.26c3.7,6.83-3.08,14.93-2.61,18.67.8,6.43,8.27,19.58,15,18.92s19.34-43.78,16.82-57.13-12.6-27.41-22.14-29.35-22.79,3.61-25.85,3.61S721.59,408.82,720.71,413Z"/><path class="cls-15" d="M808.29,567.63c-5.45-29.57-20.52-60.6-30.71-60.57-17.36,0-42.31,6.22-52.39,39.71-7.42,24.67-17.32,166.58-6.13,176.67,25.57,23.07,84.85,70.17,95.38,22.14C824.09,701.57,817.75,618.94,808.29,567.63Z"/><path class="cls-15" d="M766.12,538.2c-5-17.36-20.92-23.36-31.81-11.94-5.9,6.18-13.11,15-21.82,27.48-32.4,46.49-39,46.2-45.07,45.24s-57.49-15.66-57.49-15.66a20.46,20.46,0,0,0-4.18,6.85c-2.07,5.64-1,9.5-1,9.5-2-1.76,18.22,17,28.3,24.53,13.3,9.9,33.34,19.18,41.32,22.7a8.1,8.1,0,0,0,6.95-.14c11.85-5.75,51.64-26.72,84-63.11C773.85,574.06,770.72,554.3,766.12,538.2Z"/><path class="cls-12" d="M779.33,507.34l-3.93-11.93s-35.18,3.87-41.09,30.85C734.31,526.26,761.58,507.92,779.33,507.34Z"/><path class="cls-2" d="M864.74,995.19H865c2-.05,3.52-2.24,3.34-4.76L855.06,812.08l-11.56,1.39,19,179.31A2.43,2.43,0,0,0,864.74,995.19Z"/><path class="cls-2" d="M796.53,995.19h.24c2-.05,3.52-2.24,3.34-4.76L786.86,812.08l-11.57,1.39,19,179.31A2.43,2.43,0,0,0,796.53,995.19Z"/><path class="cls-2" d="M668.48,995.19h-.24c-2-.05-3.53-2.24-3.34-4.76l13.25-178.35,11.57,1.39-19,179.31A2.43,2.43,0,0,1,668.48,995.19Z"/><path class="cls-2" d="M861,786.82l12.58-149c1.65-21.47-3.68-42.49-26.67-44.12l-40.44-3.32c-24-1.33-34.79,25.55-37.82,46.25l-24,163.74Z"/><path class="cls-20" d="M670.07,786.14H860.79a0,0,0,0,1,0,0v26.68a1.87,1.87,0,0,1-1.87,1.87H670.07a1.87,1.87,0,0,1-1.87-1.87V788a1.87,1.87,0,0,1,1.87-1.87Z"/><path class="cls-2" d="M746.5,786.14H860.79a0,0,0,0,1,0,0v26.68a1.87,1.87,0,0,1-1.87,1.87H746.5a1.87,1.87,0,0,1-1.87-1.87V788A1.87,1.87,0,0,1,746.5,786.14Z"/></svg>