<svg id="Layer_1" data-name="Layer 1" xmlns="http://www.w3.org/2000/svg" viewBox="0 0 1000 1000"><defs><style>.cls-1{fill:#d7ecef;opacity:0.6;}.cls-2{fill:#a9d2a0;}.cls-3{fill:#09457a;}.cls-4{fill:#09558a;}.cls-5{fill:#5d5b72;}.cls-6{fill:#aeadc0;}.cls-7{fill:#525169;}.cls-8{fill:#82b378;}.cls-9{fill:#f2a450;}.cls-10{fill:#f9b876;}.cls-11{fill:#d76716;}.cls-12{fill:#ee985e;}.cls-13{fill:#5593a7;}.cls-14{fill:#243862;}.cls-15{fill:#4a828f;}.cls-16{fill:#f7b17f;}.cls-17{fill:#2d3a64;}.cls-18{fill:#365f57;}.cls-19{fill:#aa463e;}.cls-20{fill:#b6cfda;}.cls-21{fill:#8bafbc;}.cls-22{fill:#6ec1cf;}.cls-23{fill:#98cbdc;}.cls-24{fill:#0d84ab;}.cls-25{fill:#008abf;}.cls-26{fill:#2c488c;}.cls-27{fill:#303535;}.cls-28{fill:#084568;}</style></defs><path class="cls-1" d="M49.2,1001S-58.48,653.63,153.74,653.63c112.13,0,65.93-95.33,142.14-205.6S638.7,249.59,695.41,462.57s-83.49,374.72,52,347C910.26,776.19,974.58,1001,974.58,1001Z"/><path class="cls-2" d="M921.23,957c-10.06-11.13-30.59-3.63-45.75,4.45a101.13,101.13,0,0,0-8.34-14.66C899.78,915,944.88,847,921,841.26c-20.76-5-48.79,56.15-63.8,93.36-15.54-15.86-39.38-27.52-75.79-23.48-94.45,10.5-168.26-81.82-222.65-51-43.27,24.47-82.88,38.2-121.12,33.52,1.64-42.29,2-125.38-19.92-134-22.24-8.77-.42,85.57,11.7,132.66-2.86-.58-5.68-1.21-8.54-2-7.84-23.49-20.79-54.19-35-55.23-13.4-1,3.13,26.66,19.39,50C358.46,870.29,303,927.87,302.09,996h583.6a113,113,0,0,0-5.6-23C902.68,972.19,932.12,969.13,921.23,957Z"/><rect class="cls-3" x="276.05" y="943.6" width="153.86" height="52.36"/><rect class="cls-4" x="228.19" y="943.6" width="153.86" height="52.36"/><rect class="cls-5" x="489.74" y="753.28" width="114.54" height="242.69"/><rect class="cls-6" x="453.84" y="753.28" width="114.54" height="242.69"/><polygon class="cls-7" points="568.97 753.27 604.28 789.69 604.28 753.27 568.97 753.27"/><path class="cls-8" d="M215.63,806.84S194.23,831,190,829.52s15.65-26,15.65-26c-7.46-5.42-30.66-2-30.66-2s-7.73,37.74-11.54,34.8,8-32.89,8-32.89c-8.3-.75-18.51,8.59-18.51,8.59-13.94,16.68.92,43,.92,43a72.48,72.48,0,0,1-11.7,24.82s-12.56,14.07-13.44,39.29l2.29.29s3.61-23.49,10.2-34.56c.27-.41.61-1,1.11-1.68,1.06-1.5,1.83-2.65,2.32-3.46,3.28-4.79,7.81-10.85,10-11.43a8.16,8.16,0,0,1-.08-1.67c0,.52.08,1.1.08,1.67.76,13.28,17.75,24.87,28.22,27.3s7.24-4.16,3.62-13.79-15-14-17.63-18.47,2.78-4.44,9.1-.11,7.16,16,17.29,23.31,25.33-18.12,25.33-18.12c-8.08-.63-19.58-13.91-19.16-18s19.54,7,22.81,7.56,10.71-5.65,11.85-25.56S215.63,806.84,215.63,806.84Z"/><path class="cls-2" d="M101.91,821.84s23.65-20.08,12.6-47.31c0,0-8.83-16.74-18.28-21,0,0,5.07,40.62,0,41.61s-3.46-45.88-3.46-45.88-24.91-18.17-34.7-16.73c0,0,15.46,39.64,10.4,38.72s-22.4-41.09-22.4-41.09S20.52,723,16.44,745.91,19,780.3,22.76,781.74s28.07,1,27.46,5.71-17,12.41-26.16,8.14c0,0,10.09,37.73,23.35,35.83S64.73,817.11,73,816.13s14.21,2.37,10.09,5.71-18,1.1-24.6,9.64-12,13.79.31,17.6,34.39,1.44,38.81-12.93Z"/><path class="cls-8" d="M108.19,856.69a109.47,109.47,0,0,1-6.32-34.91C94.33,785.49,28.1,753,28.1,753c84.21,51.59,69.39,83.15,69.39,83.15,2.28,2,5.67,11.6,8,18.93.34,1.27.87,3,1.67,5.31h0l.76,2.54c4.35,16.44,2.06,44.83,2.06,44.83l2.63,1.1A95.4,95.4,0,0,0,108.19,856.69Z"/><path class="cls-2" d="M139.54,794.14s-31.2-26.48-16.65-62.37c0,0,11.66-22,24.11-27.7,0,0-6.66,53.55,0,54.82s4.57-60.47,4.57-60.47,32.83-23.95,45.74-22c0,0-20.37,52.28-13.71,51s29.52-54.18,29.52-54.18,33.67-9.46,39.08,20.77-3.32,45.36-8.31,47.26-37,1.27-36.18,7.56,22.47,16.39,34.51,10.73c0,0-13.29,49.74-30.78,47.26s-22.85-18.92-33.66-20.14-18.7,3.18-13.3,7.56,23.69,1.44,32.45,12.7,15.81,18.17-.42,23.19-45.32,1.91-51.15-17Z"/><path class="cls-8" d="M236.81,703.44s-87.33,42.81-97.31,90.7a144.33,144.33,0,0,1-8.3,46s-13.49,31-5.79,68.67l3.46-1.39s-3-37.39,2.71-59.08c.23-.81.57-2,1-3.35h0c1-3.12,1.75-5.37,2.17-7,3.12-9.69,7.62-22.27,10.59-24.93C145.36,813,125.83,771.47,236.81,703.44Z"/><path class="cls-9" d="M138.47,990.84c33.75,0,61.09-41.43,61.09-92.56H77.42C77.42,949.41,104.76,990.84,138.47,990.84Z"/><path class="cls-10" d="M153.51,990.15a41.47,41.47,0,0,1-7.57.69c-33.75,0-61.1-41.43-61.1-92.56H100C100,945.54,123.35,984.49,153.51,990.15Z"/><path class="cls-9" d="M191.2,984.88H85.74c-4,0-7.31,5-7.31,11.08H198.51C198.51,989.86,195.26,984.88,191.2,984.88Z"/><path class="cls-11" d="M200,898.28H76.31c-.53,0-1,.67-1,1.51s.42,1.51,1,1.51H200c.53,0,.95-.66.95-1.51S200.55,898.28,200,898.28Z"/><path class="cls-12" d="M671.38,410.71c-1.75-.4-7.12,7-7.12,7h0c-11.39,2-28,6.58-34,8.31-4.27,1.21-15.7-4.67-26.85-11.43-13.3-8.07-26.21-17.36-26.21-17.36-7.35-.58-15.73,19.79-.8,32.77,2.29,2,10.86,5.37,20.72,8.43h0c13.64,4.27,29.71,8,35.19,6.63,6.36-1.5,24.38-11.48,35.08-19.1h0s.07-.06.11-.06c.65-.46,3.28-2.25,5-2.07,2,.17,6.48-5.37,6.63-6.87S673.17,411.12,671.38,410.71Z"/><path class="cls-13" d="M657.48,667.31l-6.29,1.91s-28.72-48.88-33.13-69.42c-2.36-11-17.52-15.75-33.37-21.92-13.78-5.43-28.07-11.89-34.92-24.59C535.1,526,559,492.53,559,492.53s25.41,22.91,47.35,46.51c15.31,16.5,28.94,33.41,31,43.11C642.32,605.75,652.91,650.58,657.48,667.31Z"/><path class="cls-14" d="M649.21,682.79h3.39s2.06-.18,3.28-.42a2.61,2.61,0,0,1,2.85,1,1.44,1.44,0,0,1,0,.38h14.87c.38-.79,0-2.67-.33-4a2.83,2.83,0,0,0-1.39-1.93c-1.58-.68-4.65-1.3-7.46-5.17-1.57-2.15-7.68-8-7.68-8h-.52c-.15,0-.75.27-3.35,3.67-1.35,1.72-3.67-2.43-3.67-2.43a5.18,5.18,0,0,0-.75,1.56,7.57,7.57,0,0,0-.28,3.24c.21,1.89-.46,5.45-1,7.88-.32,1.45-.6,2.48-.6,2.48S646.39,682.25,649.21,682.79Z"/><path class="cls-15" d="M606.33,539l-21.64,38.84c-13.78-5.43-28.07-11.89-34.92-24.59C535.1,526,559,492.53,559,492.53S584.43,515.38,606.33,539Z"/><path class="cls-13" d="M586.67,518.73s-1.75,8.31-4.57,20.89c-3.58,15.87-9,38.43-14.74,59.37-1.25,4.62-2.59,9.12-3.88,13.51-4.84,16.1-9.75,29.94-14.13,36.93-7.81,12.63-26.81,93.71-26.81,93.71l-4.73-2s-6.59-69.24,16.8-108.65a2.65,2.65,0,0,0,.46-1.44h0c.3-5.83,1.41-32,3.84-58.46.61-6.52,1.26-13,2-19.27,0-.4.12-.81.15-1.21,3.55-28.85,7-41.66,11.35-48.12l32.34,14Z"/><path class="cls-14" d="M517.43,752.27h3.39a24.34,24.34,0,0,0,3.28-.25,2.6,2.6,0,0,1,2.85,1,.56.56,0,0,1,0,.22h14.87c.38-.8,0-2.67-.33-4a2.85,2.85,0,0,0-1.39-1.93c-1.57-.68-4.65-1.3-7.46-5.16-1.57-2.16-7.68-8-7.68-8h-.52c-.15,0-.75.27-3.35,3.67-1.35,1.73-3.67-2.43-3.67-2.43a5.47,5.47,0,0,0-.75,1.57,7.54,7.54,0,0,0-.28,3.23c.21,1.89-.46,5.45-1,7.88-.32,1.46-.6,2.48-.6,2.48S514.61,751.73,517.43,752.27Z"/><path class="cls-16" d="M524.21,424.62s-5.41,20-11.65,39.53c-5.26,16.39-11.09,32.43-14.78,35.83-5.22,4.85-19.58,18.41-28.87,28.57,0,0-7.27-.06-8.38,2s-3.73,11.59-3,12.52,6.55.52,7.92-1.68a11.93,11.93,0,0,1,4.61-3.57s.08-.06.11-.06h0c11.31-5.25,29.06-16.27,34.43-21.64,4.61-4.62,14.89-23.77,23.05-40.8h0c5.94-12.34,10.77-23.6,11.57-27.35C544.66,423.24,529.43,416.72,524.21,424.62Z"/><path class="cls-17" d="M552.51,345.91c-.65-1.44-1.3-2.65-1.94-3.81a4.92,4.92,0,0,0,2.4-.52c1.9-1.21,2.78-10.33,2.47-13s-2.93-10.56-6.17-11.31-6.62,4.68-6.62,4.68c.6-3.93,6.09-6.23,6.09-6.23-11.35,3.17-10.74,14.59-10.67,15.69-10.35-5.6-16.45,24-16.45,24l26.85,24s.08-6.52,2.63-6.12C555.1,373.9,558.45,359,552.51,345.91Z"/><path class="cls-16" d="M554.22,408c-6.17,4.38-14.36-2-14.32-2,.54-.81.35-3.17-.15-6.35a62.84,62.84,0,0,0-3.73-13.1c-.46-1.15-.88-2.25-1.41-3.46l.72-.4,12-7.27s1.94,5.25,4,10.1c1.72,4,3.51,7.61,4.31,7.5C555.63,392.94,563.55,401.19,554.22,408Z"/><path class="cls-12" d="M547.29,377.24c-.3,6.47-1.75,18.12-7.54,22.45a62.84,62.84,0,0,0-3.73-13.1Z"/><path class="cls-16" d="M535.33,394s15.58-9.29,11.62-24-4.65-25.68-14.78-20.37-10.51,12.12-10,17.49S531.18,396,535.33,394Z"/><path class="cls-17" d="M541.16,366.68c7.2-1.55,9.29-5.94,9.29-5.94s-6.62-2.88-10.51-12.69c0,0-8.07-4.16-14.09,2.77a7.69,7.69,0,0,0-.76,2.53c-1.37-.69-3.43-.51-4.65,5.37-1.79,8.83,4.57,18.52,4.57,18.52,1.56-.63-.19-8.54-.46-12.75a27.6,27.6,0,0,1,1.53-8.94c.76,1.5,8.34,16,17.63,16.56a37.65,37.65,0,0,1-9.37-7.62C536.59,366.16,539,367.15,541.16,366.68Z"/><path class="cls-4" d="M583.89,438.13c-.11-.69-.26-1.44-.42-2.19a74.79,74.79,0,0,0,3.93-17.89c1.06-10.79-.76-17.48-.76-17.48s-10.82-8.72-15.58-9.81h-.27c-4.84-1-15.27,2.19-15.27,2.19s2,8.14-3.66,13.56-11.73-1.39-11.73-1.39a7.36,7.36,0,0,0-.57.64h0s-14.93,14.94-16.3,18.35-7.08,20.31-7.08,20.31,1.82,14.2,22,15.41a99.7,99.7,0,0,1,3.35,17c1.6,19.27-.27,34.45,1.6,45.7s35.57,4.85,41.67,2.65,4.72-12.06,5.18-21.63C590.6,491.45,585.87,448.75,583.89,438.13Z"/><path class="cls-18" d="M587.43,418.1a77.49,77.49,0,0,1-4,17.94c-.53-3.52-2.7-16.5-6.17-22.33A22.75,22.75,0,0,1,587.43,418.1Z"/><path class="cls-12" d="M450.25,544.35s6.28-11.54,7.61-12.87,7.28-3.75,7.62-3.29.34,1.16-.38,2.14-3.54,3.46-3.12,3.75,8.87-6.12,10.09-4-.68,11-4,15.23-13,6.06-13.6,6.64C449.33,557,450.25,544.35,450.25,544.35Z"/><path class="cls-16" d="M340.23,517.75s9,16.21,20.5,9.4c0,0,2.47-9,2.51-15.75V509c.07-7.5.23-11.72.23-11.72h0c-.54-.34-17.56-10.9-17.52-10C346.21,507.59,340.23,517.75,340.23,517.75Z"/><path class="cls-12" d="M347.15,492.13c1.63,4.62,7.27,13.62,15.61,16.91.08-7.51.23-11.72.23-11.72h0C362.53,497.15,346.65,490.8,347.15,492.13Z"/><path class="cls-16" d="M366.57,496.57s-19.16,6.81-21.78-11.31-6.86-29.48,5.25-34.56,15.5,1,17.33,6.75S371.48,494.32,366.57,496.57Z"/><path class="cls-19" d="M345.43,490.17c-.26.23-4.38,2.19-12.18-21.41a30,30,0,0,1,.8-18.75c2.85-7,13-12.64,21.4-15.06s10.44,4.73,12.42,11.94c2.09,7.56,8.07,13.79,8.07,13.79-7.24,6.12-16-2.65-19-1.21s-4.12,8.66-4.35,11-.57,4.27-4.38,2.2-1.71,8.19-1.1,10.15C347.11,482.84,347.64,488.09,345.43,490.17Z"/><path class="cls-17" d="M296.11,942.59H284.49c-2.43,0-5.14-3.75-5.82-10.56s-5.68-10.56-6.74-16.16,4.45-13.5,4.45-13.5l.92-1.84.95-1.91,9.18,3.29s.23,3.35.38,7.62c.11,3.11.15,6.63,0,9.81-.27,7.44,1.37,15.52,5.67,17S296.11,942.59,296.11,942.59Z"/><path class="cls-17" d="M376.85,943.6H346.12a2.4,2.4,0,0,1-.65-.29c-2.06-1.62-1.41-13.85-1.18-17.66,0-.69.08-1.09.08-1.09s10.81-13.51,12.3-3.18c0,.35.11.64.15.93h0c1.87,9.63,10.28,14,15.12,15.29C375.64,938.58,376.59,941.92,376.85,943.6Z"/><path class="cls-20" d="M370.65,673.89s-1.64,31.05-3.58,68.32c-2.63,50.67-5.79,112.93-6.1,124.7-.53,20.48-2.7,53.2-2.7,53.2s-5.14,7.79-15.39,4.5c0,0-9.14-46.74-11.77-96.25,0-.81-.07-1.61-.11-2.42-2.44-50.38-6.21-156.38-6.21-156.38Z"/><path class="cls-21" d="M370.65,673.89s-1.64,31.05-3.58,68.32l-36,86.21c0-.81-.07-1.62-.11-2.42-2.44-50.38-6.21-156.38-6.21-156.38Z"/><path class="cls-20" d="M363.14,677.59S333.55,790,314.09,842.79s-25.52,67.57-25.52,67.57-11.16-6.81-12.15-11.43c0,0,7.43-102,20.45-126.83,7.35-14,16-56.2,16.42-70.91s2.63-43.92,2.63-43.92Z"/><path class="cls-12" d="M295.39,658.83s-.76,14-1.34,16.22-4.3,8.83-4.72,8.71-.68-.64-.46-2,1.53-5.54,1.11-5.48-4.69,11.94-6.4,11.25-3.39-9.06-2.36-15,7.88-15.3,8.15-16.22C291.62,648.27,295.39,658.83,295.39,658.83Z"/><path class="cls-22" d="M292.23,662.41c3.27,1.62,3.8,1.21,3.8,1.21s16-44,17.56-48,33.86-49.33,33.86-49.33l-8.26-46.8s-36.68,71.9-40.6,82.23c-6.55,17.08-10.36,56.66-10.36,56.66A10.14,10.14,0,0,0,292.23,662.41Z"/><path class="cls-23" d="M376.89,584.68c-.11,9.64-.49,20.43-1,31.39,0,.64-.07,1.33-.07,2-.31,6.81-.65,13.61-1.07,20.25-.15,2.65-.34,5.31-.5,7.91l0,.34c0,1-.08,2-.16,3-1.6,24.87-3.31,44.55-3.61,44.84a1.28,1.28,0,0,1-1.26.46c-4.3-.81-17.18.63-27.69-2.83-8.87-2.83-16.53-8.19-24.64-15.46-1.07-1-3.54-3.52-3.32-5.43.19-2.07.58-5.13,1-8.94,1.6-13.21,4.34-36,5.3-62.67q.28-7.44.8-14.71a329.66,329.66,0,0,1,4.3-35.08c3.62-19.68,8.91-34.74,15.58-40.63.87-.75,5.56,3.75,9.82,8,4,3.86,8.15,4.9,12.19,4.38l3.58,6a76,76,0,0,1,10.21,32.2c.08,1,.19,2.19.23,3.41C376.89,568.93,377,576.38,376.89,584.68Z"/><path class="cls-22" d="M376.89,584.68c-.11,9.64-.49,20.43-1,31.39,0,.64-.07,1.33-.07,2-24.61-23.32-28.42-66-28.42-66a50.68,50.68,0,0,1,29.14,11C376.89,568.93,377,576.38,376.89,584.68Z"/><path class="cls-23" d="M454,545.5c-1.26-5.19-3.24-4.84-3.24-4.84s-36.6,13.79-39.87,14.42-39.39-21.35-39.39-21.35-14.2-9.63-20.87-.86c-5.79,7.67-6.05,17.37-4.68,25.56,1.6,9.69,7,16.91,13.59,18.18,14.74,2.82,44.15,8.19,50.28,6.86,13.71-2.88,44.79-30.06,44.79-30.06A26.56,26.56,0,0,0,454,545.5Z"/><g id="man"><path class="cls-17" d="M814.7,647.32s5.06,7.16,4.07,12.24-5.56,8.42-6.21,14.65-3.08,9.58-5.33,9.58H796.61s-1.64-4.38,2.32-5.65,5.45-8.6,5.22-15.35.38-15.75.38-15.75l8.42-3Z"/><path class="cls-17" d="M751.36,682.93c-.53.4-2.32.63-4.8.86H722.49c.08-1.09.65-5,4.57-5.88,4.46-1.1,12.15-5,13.86-13.62a6.64,6.64,0,0,0,.16-.87c1.37-9.17,11.27,2.83,11.27,2.83s0,.35.08,1C752.65,670.64,753.26,681.54,751.36,682.93Z"/><path class="cls-23" d="M728.24,436.56s1.52,28.45,3.28,62.67c2.4,46.51,5.29,103.57,5.6,114.42.49,18.81,2.47,48.82,2.47,48.82s4.72,7.15,14.13,4.15c0,0,8.38-42.87,10.78-88.28,0-.75.08-1.5.11-2.25,2.25-46.22,5.72-143.51,5.72-143.51Z"/><path class="cls-22" d="M728.24,436.56s1.52,28.45,3.28,62.67l33,79.11c0-.75.08-1.5.11-2.25,2.25-46.22,5.72-143.51,5.72-143.51Z"/><path class="cls-23" d="M735.13,439.91s27.16,103.11,45,151.58,23.43,62,23.43,62,10.24-6.18,11.16-10.45c0,0-6.82-93.53-18.78-116.33-6.74-12.86-14.7-51.53-15-65.09s-2.4-40.27-2.4-40.27Z"/><path class="cls-16" d="M651.38,384s-7.35-2.53-8.61-2.42-5.56,2.89-5.63,3.41.15,1,.91,1,3.2-.4,3.05.06-7.28,2.54-7.35,4.73,3.81,6.18,7.08,6.47,9.75-5.54,10.32-5.6C655.88,391,651.38,384,651.38,384Z"/><path class="cls-24" d="M648.22,386.82c-1.07-5.08-.8-5.88-.8-5.88S677.28,356.47,680,354s33.59-52.22,33.59-52.22l31.61,13.15s-48.9,56.44-55.91,62.5c-11.58,10-38.39,15.75-38.39,15.75A16.32,16.32,0,0,1,648.22,386.82Z"/><path class="cls-16" d="M723.18,277.59s-11.09,29.55-21.9,33.41c0,0,.45-9.92,3.08-16.67-1.07-1.91-2-3.7-2.86-5.31-2.74-5.31-4-8.54-4-8.54l3.65-15,2.48-10.15a52.49,52.49,0,0,0,3.88,8.48C714.64,276.21,723.18,277.59,723.18,277.59Z"/><path class="cls-12" d="M707.56,263.86s1.33,14.77-6.06,25.16c-2.74-5.31-4-8.54-4-8.54l3.65-15A14.59,14.59,0,0,1,707.56,263.86Z"/><path class="cls-16" d="M694.57,282.67s16.57-9.75,12.38-25.27-4.84-27.24-15.61-21.64-11.2,12.75-10.63,18.46S690.15,284.8,694.57,282.67Z"/><path class="cls-25" d="M780,429.12c-6.67,14.54-56.6,34-56,23.89a165.88,165.88,0,0,0,0-19.85c-.11-2.14-.3-4.45-.53-6.87a218,218,0,0,0-11-49.91c-.49-1.5-1-2.94-1.56-4.44A198.16,198.16,0,0,1,704,348.39c-3.47-15.12-4.84-29.6-3.13-39.12,0-.06,0-.12,0-.12,10.44-7.32,14.48-35.66,14.48-35.66s35.61,9.7,55.53,81.6C771,355,785.87,416.48,780,429.12Z"/><path class="cls-24" d="M724.05,433.16c-.11-2.14-.3-4.45-.53-6.87a218,218,0,0,0-11-49.91c1.14-10.62,2.74-19.39,4.5-23.37,7.08-16.1,11.23-18.64,11.23-18.64S738.91,402.4,724.05,433.16Z"/><path class="cls-16" d="M668,417s-9.86.81-11.39,1.62-6.32,6.63-6.28,7.32.42,1.16,1.37.81,3.92-2.25,3.85-1.61-8.5,7.15-8.12,9.92,6.25,5.71,10.44,4.27,10.93-12.23,11.62-12.58C675.22,423.41,668,417,668,417Z"/><path class="cls-25" d="M666.08,422.66c-2-4.85-.53-7-.53-7s30.43-36.07,32.79-39.76,13.45-61.69,13.45-61.69,3.81-23.48,12.72-26.08c7.73-2.25,13.1,3.52,16.57,10.33,4.15,8.08,4.57,19.27,1.1,28.1-7.77,19.85-23.42,59.21-28,65.9-10.17,14.94-44.26,35.89-44.26,35.89A15.13,15.13,0,0,1,666.08,422.66Z"/><path class="cls-26" d="M709.31,228.54c.12-.34.46-.69,1.26-1.09a2.33,2.33,0,0,0-1.68-.12c-.45-1.73-1.6-4.61-3.69-4.67a3.16,3.16,0,0,1,1.67,2.31c-2.89-2.77-8.3-3.58-21.7,3.17-17.72,8.94-8.88,24.52-6.17,25.79s7.61-6.75,12.07-7.84,6.85,8.3,8.53,9.06.72-1.33,2.51-3.52,2.78,2.88,2.75,6.4,3.42,6.87,3.42,6.87l2-5.66c2-5.65,1.49-26.08-.45-29.77C709.65,229.18,709.5,228.83,709.31,228.54Z"/></g><path class="cls-27" d="M999.56,1001H.44c-.72,0-1.33-.85-1.33-1.86v-1.32c0-1,.61-1.86,1.33-1.86H999.56c.72,0,1.33.85,1.33,1.86v1.32C1000.85,1000.15,1000.28,1001,999.56,1001Z"/><polygon class="cls-28" points="429.91 942.59 429.91 972.94 382.49 942.59 429.91 942.59"/><rect class="cls-3" x="677.79" y="683.79" width="157.28" height="312.17"/><rect class="cls-4" x="629.92" y="683.79" width="157.28" height="312.17"/><polygon class="cls-28" points="835.07 683.79 835.07 730.47 786.73 683.79 835.07 683.79"/></svg>